<?xml version="1.0" encoding="utf-8"?>
<!-- Generator: Adobe Illustrator 18.1.1, SVG Export Plug-In . SVG Version: 6.00 Build 0)  -->
<!DOCTYPE svg PUBLIC "-//W3C//DTD SVG 1.1//EN" "http://www.w3.org/Graphics/SVG/1.1/DTD/svg11.dtd">
<svg version="1.1" id="add_circ" xmlns="http://www.w3.org/2000/svg" xmlns:xlink="http://www.w3.org/1999/xlink" x="0px" y="0px"
	 width="50px" height="50px" viewBox="0 0 50 50" enable-background="new 0 0 50 50" xml:space="preserve">
<path fill-rule="evenodd" clip-rule="evenodd" d="M0.3,25C0.3,11.4,11.5,0.2,25.1,0.1c13.6-0.1,24.7,11,24.6,24.6
	c-0.1,13.6-11.2,24.8-24.9,24.9C11.2,49.7,0.2,38.6,0.3,25z M47.5,24.7c0.1-12.4-10-22.4-22.3-22.3C12.7,2.5,2.6,12.6,2.5,25
	c-0.1,12.4,10,22.4,22.3,22.3C37.3,47.3,47.4,37.1,47.5,24.7z M11.4,28l0-6L22,21.9l0.1-10.5l6,0L28,21.8l10.5-0.1l0,6L28,27.9
	l-0.1,10.5l-6,0L22,27.9L11.4,28z"/>
</svg>
