<?xml version="1.0" encoding="utf-8"?>
<!-- Generator: Adobe Illustrator 18.1.1, SVG Export Plug-In . SVG Version: 6.00 Build 0)  -->
<!DOCTYPE svg PUBLIC "-//W3C//DTD SVG 1.1//EN" "http://www.w3.org/Graphics/SVG/1.1/DTD/svg11.dtd">
<svg version="1.1" xmlns="http://www.w3.org/2000/svg" xmlns:xlink="http://www.w3.org/1999/xlink" x="0px" y="0px" width="50px"
	 height="50px" viewBox="0 0 50 50" enable-background="new 0 0 50 50" xml:space="preserve">
<g id="bell">
	<path id="bell-2-icon" d="M31.5,8.1c-1.3-0.8-2.2-2.2-2.2-3.7c0,0,0,0,0,0C29.4,2,27.4,0,25,0c-2.4,0-4.4,2-4.4,4.4c0,0,0,0,0,0
		c0,1.5-0.8,3-2.2,3.8c-9.7,5.6-4.1,24.1-14.3,27.4v4.3h41.7v-4.3C35.7,32.3,41.3,13.7,31.5,8.1z M25,2.6c1,0,1.8,0.8,1.8,1.8
		c0,1-0.8,1.8-1.8,1.8c-1,0-1.8-0.8-1.8-1.8S24,2.6,25,2.6z M11.1,35.7c4.5-5.5,4.1-14.3,6.4-20c1.2-3.1,3.4-5.3,7.5-5.3
		c4,0,6.2,2.2,7.5,5.3c2.3,5.7,1.9,14.4,6.4,20H11.1z M31,43.5c0,3.3-2.7,6-6,6c-3.3,0-6-2.7-6-6H31z"/>
</g>
</svg>
