<?xml version="1.0" encoding="utf-8"?>
<!-- Generator: Adobe Illustrator 19.1.0, SVG Export Plug-In . SVG Version: 6.00 Build 0)  -->
<svg version="1.1" id="Layer_1" xmlns="http://www.w3.org/2000/svg" xmlns:xlink="http://www.w3.org/1999/xlink" x="0px" y="0px"
	 width="50px" height="50px" viewBox="0 0 50 50" style="enable-background:new 0 0 50 50;" xml:space="preserve">
<g>
	<g>
		<path d="M11,3.3H2.7c-1.3,0-2.4,1.1-2.4,2.4v39.5c0,1.3,1.1,2.4,2.4,2.4H11c1.3,0,2.4-1.1,2.4-2.4V5.7C13.4,4.4,12.3,3.3,11,3.3z
			 M10.7,43.3H2.9v-2.7h7.9V43.3z M10.7,15.3H2.9V14h7.9V15.3z M10.7,12H2.9V9.3h7.9V12z M25.4,3.3h-8.3c-1.3,0-2.4,1.1-2.4,2.4
			v39.5c0,1.3,1.1,2.4,2.4,2.4h8.3c1.3,0,2.4-1.1,2.4-2.4V5.7C27.8,4.4,26.8,3.3,25.4,3.3z M25.2,43.3h-7.9v-2.7h7.9V43.3z
			 M25.2,15.3h-7.9V14h7.9V15.3z M25.2,12h-7.9V9.3h7.9V12z M49.7,42.8L41.2,4.3c-0.3-1.3-1.6-2.1-2.9-1.8l-8.1,1.8
			c-1.3,0.3-2.1,1.6-1.8,2.9l8.5,38.5c0.3,1.3,1.6,2.1,2.9,1.8l8.1-1.8C49.2,45.4,50,44.2,49.7,42.8z M31.7,10.1l7.7-1.7L40,11
			l-7.7,1.7L31.7,10.1z M33,16l-0.3-1.3l7.7-1.7l0.3,1.3L33,16z M39,43.3l-0.6-2.6l7.7-1.7l0.6,2.6L39,43.3z"/>
	</g>
</g>
</svg>
