<?xml version="1.0" encoding="utf-8"?>
<!-- Generator: Adobe Illustrator 19.1.0, SVG Export Plug-In . SVG Version: 6.00 Build 0)  -->
<svg version="1.1" id="Layer_1" xmlns="http://www.w3.org/2000/svg" xmlns:xlink="http://www.w3.org/1999/xlink" x="0px" y="0px"
	 width="50px" height="50px" viewBox="0 0 50 50" style="enable-background:new 0 0 50 50;" xml:space="preserve">
<g>
	<g>
		<path d="M3.8,5.6c0-1,0.8-1.8,1.8-1.8h26.5c0-2-1.6-3.5-3.5-3.5h-23c-2.9,0-5.3,2.4-5.3,5.3v31.8c0,2.9,2.4,5.3,5.3,5.3h5.3V12.6
			c0-2,0.7-3.8,1.8-5.3H5.6C4.6,7.3,3.8,6.5,3.8,5.6z M46.2,14.4H19.7c-1,0-1.8-0.8-1.8-1.8c0-1,0.8-1.8,1.8-1.8h26.5
			c0-2-1.6-3.5-3.5-3.5h-23c-2.9,0-5.3,2.4-5.3,5.3v31.8c0,2.9,2.4,5.3,5.3,5.3h26.5c2,0,3.5-1.6,3.5-3.5V17.9
			C49.8,16,48.2,14.4,46.2,14.4z M39.1,32.1H25v-3.5h14.1V32.1z M42.7,25H21.5v-3.5h21.2V25z"/>
	</g>
</g>
</svg>
