<?xml version="1.0" encoding="utf-8"?>
<!-- Generator: Adobe Illustrator 19.1.0, SVG Export Plug-In . SVG Version: 6.00 Build 0)  -->
<svg version="1.1" id="Layer_1" xmlns="http://www.w3.org/2000/svg" xmlns:xlink="http://www.w3.org/1999/xlink" x="0px" y="0px"
	 width="50px" height="50px" viewBox="0 0 50 50" style="enable-background:new 0 0 50 50;" xml:space="preserve">
<path d="M42,10.4c0,1.1-0.9,1.9-2.1,1.9c-1.2,0-2.1-0.8-2.1-1.9V5.6c0-1.1,0.9-1.9,2.1-1.9c1.2,0,2.1,0.8,2.1,1.9V10.4z M12.4,5.6
	c0-1.1-0.9-2-2.1-2S8.1,4.4,8.1,5.5v4.8c0,1.1,0.9,1.9,2.1,1.9s2.1-0.8,2.1-1.9V5.6z M44.7,8.4v1.9c0,2.4-2.1,4.3-4.8,4.3
	c-2.7,0-4.8-1.9-4.8-4.3v-2H15.1v2c0,2.4-2.1,4.3-4.8,4.3s-4.8-1.9-4.8-4.3v-2H0.3v38.1h49.5v-38H44.7L44.7,8.4z M44.9,42.1H5.1
	V18.6h39.9V42.1z M23.1,38.9c5.1-8,8.6-12.2,13.4-15.9l-0.7-1.2c-5.9,3.2-9,5.6-13.8,10.4c-2.5-1.6-4-2.3-6.2-3.3l-1.7,1.5
	C17.9,33.6,20,35.7,23.1,38.9z"/>
</svg>
