<?xml version="1.0" encoding="utf-8"?>
<!-- Generator: Adobe Illustrator 18.1.1, SVG Export Plug-In . SVG Version: 6.00 Build 0)  -->
<!DOCTYPE svg PUBLIC "-//W3C//DTD SVG 1.1//EN" "http://www.w3.org/Graphics/SVG/1.1/DTD/svg11.dtd">
<svg version="1.1" id="Layer_1" xmlns="http://www.w3.org/2000/svg" xmlns:xlink="http://www.w3.org/1999/xlink" x="0px" y="0px"
	 width="50px" height="50px" viewBox="0 0 50 50" enable-background="new 0 0 50 50" xml:space="preserve">
<path id="calendar-3-icon" fill="#010101" d="M17.9,27h-7.1v-7.1h7.1V27z M28.7,19.9h-7.2V27h7.1C28.7,27,28.7,19.9,28.7,19.9z
	 M39.5,19.9h-7.1V27h7.2L39.5,19.9L39.5,19.9z M17.9,30.3h-7.1v7.2h7.1V30.3z M28.7,30.3h-7.2v7.2h7.1
	C28.7,37.5,28.7,30.3,28.7,30.3z M0,2.5v44.9h30c2.3,0,4.5-0.9,6.1-2.5l11.4-11.4c1.6-1.6,2.5-3.8,2.5-6V2.5H0z M45.1,25.6
	c0,8.5-11.6,5.7-11.6,5.7s3.5,11.2-5.2,11.2c-2,0-23.5,0-23.5,0V14.2h40.2C45.1,14.2,45.1,24.2,45.1,25.6z"/>
</svg>
