<?xml version="1.0" encoding="utf-8"?>
<!-- Generator: Adobe Illustrator 18.1.1, SVG Export Plug-In . SVG Version: 6.00 Build 0)  -->
<!DOCTYPE svg PUBLIC "-//W3C//DTD SVG 1.1//EN" "http://www.w3.org/Graphics/SVG/1.1/DTD/svg11.dtd">
<svg version="1.1" xmlns="http://www.w3.org/2000/svg" xmlns:xlink="http://www.w3.org/1999/xlink" x="0px" y="0px" width="50px"
	 height="50px" viewBox="0 0 50 50" enable-background="new 0 0 50 50" xml:space="preserve">
<g id="calendar_square">
	<path id="calendar-5-icon" d="M17.9,29.9h-7.1v-7.2h7.1V29.9z M28.7,22.7h-7.1v7.2h7.1V22.7z M39.5,22.7h-7.1v7.2h7.1V22.7z
		 M17.9,33.1h-7.1v7.2h7.1V33.1z M28.7,33.1h-7.1v7.2h7.1V33.1z M39.5,33.1h-7.1v7.2h7.1V33.1z M42.2,8.3c0,1.2-1,2.2-2.2,2.2
		c-1.2,0-2.2-1-2.2-2.2V2.7c0-1.2,1-2.2,2.2-2.2c1.2,0,2.2,1,2.2,2.2V8.3z M12.4,2.7c0-1.2-1-2.2-2.2-2.2c-1.2,0-2.2,1-2.2,2.2v5.5
		c0,1.2,1,2.2,2.2,2.2c1.2,0,2.2-1,2.2-2.2V2.7z M44.8,5.9v2.3c0,2.7-2.2,4.9-4.9,4.9c-2.7,0-4.9-2.2-4.9-4.9V5.9H15v2.2
		c0,2.7-2.2,4.9-4.9,4.9s-4.9-2.2-4.9-4.9V5.9H0v43.6h50V5.9L44.8,5.9L44.8,5.9z M45.1,44.6H4.9v-27h40.3V44.6z"/>
</g>
</svg>
