<?xml version="1.0" encoding="utf-8"?>
<!-- Generator: Adobe Illustrator 18.1.1, SVG Export Plug-In . SVG Version: 6.00 Build 0)  -->
<!DOCTYPE svg PUBLIC "-//W3C//DTD SVG 1.1//EN" "http://www.w3.org/Graphics/SVG/1.1/DTD/svg11.dtd">
<svg version="1.1" id="change" xmlns="http://www.w3.org/2000/svg" xmlns:xlink="http://www.w3.org/1999/xlink" x="0px" y="0px"
	 width="50px" height="50px" viewBox="0 0 50 50" enable-background="new 0 0 50 50" xml:space="preserve">
<path d="M38.9,10.9l-4.5,4.6c-2.4-2.5-5.8-4.1-9.5-4.1c-7.4,0-13.5,6.2-13.5,13.9c0,0,0,0,0,0h5.2L8.3,34L0,25.4h5.1c0,0,0,0,0,0
	C5.1,14.1,14,4.9,24.9,4.9C30.4,4.9,35.3,7.2,38.9,10.9z M49.6,24.6L41.3,16l-8.4,8.6h5.2c0,0,0,0,0,0c0,7.7-6,13.9-13.5,13.9
	c-3.7,0-7.1-1.6-9.5-4.1l-4.5,4.6c3.6,3.7,8.5,6,14,6c10.9,0,19.8-9.1,19.8-20.4c0,0,0,0,0,0L49.6,24.6L49.6,24.6z"/>
</svg>
