<?xml version="1.0" encoding="utf-8"?>
<!-- Generator: Adobe Illustrator 18.1.1, SVG Export Plug-In . SVG Version: 6.00 Build 0)  -->
<!DOCTYPE svg PUBLIC "-//W3C//DTD SVG 1.1//EN" "http://www.w3.org/Graphics/SVG/1.1/DTD/svg11.dtd">
<svg version="1.1" id="chat" xmlns="http://www.w3.org/2000/svg" xmlns:xlink="http://www.w3.org/1999/xlink" x="0px" y="0px"
	 width="50px" height="50px" viewBox="0 0 50 50" enable-background="new 0 0 50 50" xml:space="preserve">
<path d="M14.9,37C14.9,37,14.9,37,14.9,37c-3.1,2-10,3.9-14.8,4.8c1.8-3.6,3.8-8.6,3.7-12.1C1.4,26.8,0,22.9,0,19C0,8,10.5,0,22.3,0
	C34,0,44.6,8,44.6,19c0,0.2,0,0.3,0,0.5c-1.4-0.7-2.8-1.4-4.4-1.8c-0.8-7.5-8.5-13.3-17.9-13.3c-9.9,0-18,6.6-18,14.6
	c0,4.2,1.8,6.9,4.4,9.6c-0.5,3.9-1.8,7.3-1.8,7.3s3.7-1,7.9-3.5C14.6,34,14.7,35.5,14.9,37z M49.6,50c-3.3-0.6-8.1-2-10.2-3.3
	c-11.8,2.9-20.4-4.5-20.4-12.4c0-7.6,7.3-13.1,15.4-13.1c8.1,0,15.4,5.5,15.4,13.1c0,2.7-0.9,5.3-2.6,7.4
	C46.9,44.1,48.3,47.5,49.6,50z M30.4,34.5c0-1.2-0.9-2.1-2.1-2.1c-1.2,0-2.1,1-2.1,2.1c0,1.2,0.9,2.1,2.1,2.1
	C29.5,36.6,30.4,35.6,30.4,34.5z M36.7,34.5c0-1.2-0.9-2.1-2.1-2.1c-1.2,0-2.1,1-2.1,2.1c0,1.2,0.9,2.1,2.1,2.1
	C35.8,36.6,36.7,35.6,36.7,34.5z M42.9,34.5c0-1.2-0.9-2.1-2.1-2.1c-1.2,0-2.1,1-2.1,2.1c0,1.2,0.9,2.1,2.1,2.1
	C42,36.6,42.9,35.6,42.9,34.5z"/>
</svg>
