<?xml version="1.0" encoding="utf-8"?>
<!-- Generator: Adobe Illustrator 18.1.1, SVG Export Plug-In . SVG Version: 6.00 Build 0)  -->
<!DOCTYPE svg PUBLIC "-//W3C//DTD SVG 1.1//EN" "http://www.w3.org/Graphics/SVG/1.1/DTD/svg11.dtd">
<svg version="1.1" id="clock_sq_hands" xmlns="http://www.w3.org/2000/svg" xmlns:xlink="http://www.w3.org/1999/xlink" x="0px"
	 y="0px" width="50px" height="50px" viewBox="0 0 50 50" enable-background="new 0 0 50 50" xml:space="preserve">
<path fill="#231F20" d="M38.5,29.8H21.7V11.2h5.4v13.2h11.4V29.8z M25.1,5.5C14.4,5.5,5.7,14.2,5.7,25c0,10.8,8.7,19.5,19.4,19.5
	c10.7,0,19.4-8.7,19.4-19.5C44.5,14.2,35.8,5.5,25.1,5.5 M25.1,0c13.7,0,24.8,11.2,24.8,25S38.8,50,25.1,50C11.4,50,0.3,38.8,0.3,25
	S11.4,0,25.1,0z"/>
</svg>
