<?xml version="1.0" encoding="utf-8"?>
<!-- Generator: Adobe Illustrator 18.1.1, SVG Export Plug-In . SVG Version: 6.00 Build 0)  -->
<!DOCTYPE svg PUBLIC "-//W3C//DTD SVG 1.1//EN" "http://www.w3.org/Graphics/SVG/1.1/DTD/svg11.dtd">
<svg version="1.1" id="Layer_1" xmlns="http://www.w3.org/2000/svg" xmlns:xlink="http://www.w3.org/1999/xlink" x="0px" y="0px"
	 width="50px" height="50px" viewBox="0 0 50 50" enable-background="new 0 0 50 50" xml:space="preserve">
<path id="time-3-icon" fill="#010101" d="M24.9,0C11.1,0,0,11.1,0,24.9s11.1,24.9,24.9,24.9s24.9-11.1,24.9-24.9
	C49.8,11.1,38.7,0,24.9,0z M24.9,44.4C14.1,44.4,5.4,35.7,5.4,25S14.1,5.5,24.9,5.5S44.3,14.2,44.3,25
	C44.4,35.7,35.7,44.4,24.9,44.4z M40.2,26.1c0.2,0,0.3,0.2,0.3,0.5l0,0c0,0.2-0.2,0.4-0.3,0.4c-4.5,0.9-15.1,2.6-16.3,2.6
	c-1.6,0-3-1.4-3-3c0-1.2,1.8-12.6,2.6-17.3C23.6,9.1,23.8,9,24,9l0,0c0.2,0,0.4,0.1,0.4,0.4l2.3,14.5L40.2,26.1z"/>
</svg>
