<?xml version="1.0" encoding="utf-8"?>
<!-- Generator: Adobe Illustrator 19.1.0, SVG Export Plug-In . SVG Version: 6.00 Build 0)  -->
<svg version="1.1" id="Layer_1" xmlns="http://www.w3.org/2000/svg" xmlns:xlink="http://www.w3.org/1999/xlink" x="0px" y="0px"
	 width="50px" height="50px" viewBox="0 0 50 50" style="enable-background:new 0 0 50 50;" xml:space="preserve">
<path d="M43.1,21.6c-0.5-6.8-6.2-12.2-13-12.2c-4.7,0-8.8,2.5-11.1,6.2C14.6,13.1,9,16,8.7,21.2c-4.8,0.6-8.5,4.7-8.5,9.7
	c0,5.4,4.3,9.8,9.7,9.8h30.3c5.3,0,9.7-4.4,9.7-9.8C49.8,26.5,47,22.8,43.1,21.6z M26.2,36.7l-8.3-8.4h4v-8.7h8.5v8.7h4L26.2,36.7z"
	/>
</svg>
