<?xml version="1.0" encoding="utf-8"?>
<!-- Generator: Adobe Illustrator 18.1.1, SVG Export Plug-In . SVG Version: 6.00 Build 0)  -->
<!DOCTYPE svg PUBLIC "-//W3C//DTD SVG 1.1//EN" "http://www.w3.org/Graphics/SVG/1.1/DTD/svg11.dtd">
<svg version="1.1" xmlns="http://www.w3.org/2000/svg" xmlns:xlink="http://www.w3.org/1999/xlink" x="0px" y="0px" width="50px"
	 height="50px" viewBox="0 0 50 50" enable-background="new 0 0 50 50" xml:space="preserve">
<g id="colorpicker">
	<path id="eyedropper-11" display="inline" d="M42.9,13.7c-1.2,1.2-1.2,3.2,0,4.4l-2.2,2.2L29.6,9.4l2.2-2.2c1.2,1.2,3.2,1.2,4.4,0
		l5.7-5.7C42.8,0.5,44,0,45.3,0C47.9,0,50,2.1,50,4.7c0,1.2-0.5,2.4-1.4,3.3L42.9,13.7z M34.1,18.2l2.2,2.2L23.7,32.8
		c-2.1,2.2-3.5,0.3-6.3,2.3c-0.4,0.3-0.8,0.4-1.2,0.3c-0.9,0-1.7-0.8-1.7-1.9c0-0.3,0.1-0.7,0.4-1.1c1.7-2.7,0-4.1,2.1-6.2
		l12.6-12.4l2.2,2.2l-7,6.9h4.5L34.1,18.2z M18.7,31.1C18.7,31.1,18.7,31.1,18.7,31.1L18.7,31.1C18.7,31.1,18.7,31.1,18.7,31.1z
		 M9.2,20.4L4.7,16C2.2,19.1,0.4,22.9,0,27.1h6.4C6.8,24.6,7.7,22.3,9.2,20.4z M18.7,14.7V8.3c-4.2,0.4-8,2.2-11.1,4.7l4.5,4.5
		C14,16.1,16.3,15.1,18.7,14.7z M6.4,31.2H0c0.4,4.2,2.2,8,4.7,11.1l4.5-4.5C7.7,36,6.8,33.7,6.4,31.2z M12.1,40.8l-4.5,4.5
		c3.1,2.5,6.9,4.3,11.1,4.7v-6.4C16.3,43.2,14,42.2,12.1,40.8z M35.2,31.2c-0.4,2.5-1.3,4.7-2.7,6.6l4.5,4.5
		c2.5-3.1,4.2-6.9,4.6-11.1L35.2,31.2L35.2,31.2z M22.9,43.6V50c4.2-0.4,8-2.2,11.1-4.7l-4.5-4.5C27.6,42.2,25.4,43.2,22.9,43.6z"/>
</g>
</svg>