<?xml version="1.0" encoding="utf-8"?>
<!-- Generator: Adobe Illustrator 18.1.1, SVG Export Plug-In . SVG Version: 6.00 Build 0)  -->
<!DOCTYPE svg PUBLIC "-//W3C//DTD SVG 1.1//EN" "http://www.w3.org/Graphics/SVG/1.1/DTD/svg11.dtd">
<svg version="1.1" id="Layer_1" xmlns="http://www.w3.org/2000/svg" xmlns:xlink="http://www.w3.org/1999/xlink" x="0px" y="0px"
	 width="50px" height="50px" viewBox="0 0 50 50" enable-background="new 0 0 50 50" xml:space="preserve">
<path id="speech-bubble-2-icon" fill="#010101" d="M0.1,46.2c2-4,4.2-9.5,4.2-13.4C1.5,29.5,0,25.3,0,21C0,8.9,11.8,0,25,0
	c13.1,0,25,8.8,25,21c0,12.7-14,24.6-33.2,19.8C13.2,43,5.5,45.2,0.1,46.2z M25,4.8C13.9,4.8,4.8,12.1,4.8,21c0,4.7,2,7.6,4.9,10.5
	c-0.6,4.3-1.9,8.1-1.9,8.1s4.1-1.1,8.8-3.8c17.9,4.8,28.5-5.6,28.5-14.8C45,12.1,36,4.8,25,4.8z"/>
</svg>
