<?xml version="1.0" encoding="utf-8"?>
<!-- Generator: Adobe Illustrator 18.1.1, SVG Export Plug-In . SVG Version: 6.00 Build 0)  -->
<!DOCTYPE svg PUBLIC "-//W3C//DTD SVG 1.1//EN" "http://www.w3.org/Graphics/SVG/1.1/DTD/svg11.dtd">
<svg version="1.1" id="Layer_1" xmlns="http://www.w3.org/2000/svg" xmlns:xlink="http://www.w3.org/1999/xlink" x="0px" y="0px"
	 width="50px" height="50px" viewBox="0 0 50 50" enable-background="new 0 0 50 50" xml:space="preserve">
<path id="glasses-11" fill="#010101" d="M37.4,15.6c-2.3,0-5,0.2-7,1c-4.8,1.8-5.8,1.8-10.6,0c-2.1-0.8-4.7-1-7.1-1
	C8.5,15.6,4,16.4,0,17.4v3.8c1.8,0.6,2.2,1.3,2.5,3.1c0.8,5.1,2.6,10.1,10.6,10.1c6.3,0,8.4-4.7,9.9-9.1c0.7-2.2,3.5-2.2,4.2,0
	c1.4,4.4,3.5,9.1,9.9,9.1c8,0,9.8-5,10.5-10.1c0.3-1.8,0.8-2.6,2.5-3.1v-3.8C46,16.4,41.5,15.6,37.4,15.6z M21.4,23.6
	c-1.1,4.5-2.9,8.7-8.3,8.7c-6.9,0-8.3-4-8.9-10.4c-0.2-1.5,0.2-2.1,0.4-2.5c2-2.4,12.4-2.2,15.9-0.2C21.5,19.8,22.1,20.5,21.4,23.6z
	 M45.8,21.9c-0.6,6.4-2,10.4-8.9,10.4c-5.5,0-7.2-4.2-8.3-8.7c-0.8-3-0.1-3.8,0.9-4.3c3.4-2.1,13.9-2.2,15.9,0.2
	C45.7,19.8,46,20.4,45.8,21.9z M35.8,19.6c3.2-0.5,6.9,0,7.9,1.1c0.2,0.2,0.5,0.8,0.3,2c0,0.6-0.2,1.3-0.2,1.9
	C43,21.5,40.8,19.8,35.8,19.6z M6.2,24.6C6.1,24,6,23.4,5.9,22.7c-0.1-1.2,0.2-1.8,0.3-2c1-1.2,4.7-1.6,7.9-1.1
	C9.2,19.8,7.1,21.5,6.2,24.6z"/>
</svg>
