<?xml version="1.0" encoding="utf-8"?>
<!-- Generator: Adobe Illustrator 18.1.1, SVG Export Plug-In . SVG Version: 6.00 Build 0)  -->
<!DOCTYPE svg PUBLIC "-//W3C//DTD SVG 1.1//EN" "http://www.w3.org/Graphics/SVG/1.1/DTD/svg11.dtd">
<svg version="1.1" id="enter" xmlns="http://www.w3.org/2000/svg" xmlns:xlink="http://www.w3.org/1999/xlink" x="0px" y="0px"
	 width="50px" height="50px" viewBox="0 0 50 50" enable-background="new 0 0 50 50" xml:space="preserve">
<path d="M0,30V20h17.3v-5l10.2,10L17.3,35v-5L0,30L0,30z M30.9,6.3c-4.4,0-8.4,1.5-11.7,3.9l3.5,3.4c2.4-1.6,5.2-2.5,8.2-2.5
	c3.8,0,7.4,1.5,10.1,4.1c2.7,2.6,4.2,6.2,4.2,9.9c0,3.7-1.5,7.2-4.2,9.9c-2.7,2.6-6.3,4.1-10.1,4.1c-3,0-5.8-0.9-8.2-2.5l-3.5,3.4
	c3.2,2.4,7.3,3.9,11.7,3.9C41.4,43.7,50,35.4,50,25S41.4,6.3,30.9,6.3z"/>
</svg>
