<?xml version="1.0" encoding="utf-8"?>
<!-- Generator: Adobe Illustrator 18.1.1, SVG Export Plug-In . SVG Version: 6.00 Build 0)  -->
<!DOCTYPE svg PUBLIC "-//W3C//DTD SVG 1.1//EN" "http://www.w3.org/Graphics/SVG/1.1/DTD/svg11.dtd">
<svg version="1.1" xmlns="http://www.w3.org/2000/svg" xmlns:xlink="http://www.w3.org/1999/xlink" x="0px" y="0px" width="50px"
	 height="50px" viewBox="0 0 50 50" enable-background="new 0 0 50 50" xml:space="preserve">
<g id="gear">
	<path id="gear-icon" display="inline" d="M49.8,28.2v-6.7l-3.6-1.3c-1.4-0.5-2.5-1.5-3.1-2.9c0,0,0,0,0,0c-0.6-1.4-0.5-2.9,0.1-4.2
		l1.7-3.5l-4.7-4.7l-3.5,1.7c-1.3,0.6-2.9,0.7-4.2,0.1c0,0,0,0,0,0c-1.4-0.6-2.4-1.7-2.9-3.1l-1.3-3.6h-6.7l-1.3,3.6
		c-0.5,1.4-1.5,2.5-2.9,3.1c0,0,0,0,0,0c-1.4,0.6-2.9,0.5-4.2-0.1L9.7,4.9L4.9,9.6l1.7,3.5c0.6,1.3,0.7,2.9,0.1,4.2c0,0,0,0,0,0
		c-0.6,1.4-1.7,2.4-3.1,2.9L0,21.5v6.7l3.6,1.3C5,30,6.1,31,6.7,32.4c0,0,0,0,0,0c0.6,1.4,0.5,2.9-0.1,4.2l-1.7,3.5l4.7,4.7l3.5-1.7
		c1.3-0.6,2.9-0.7,4.2-0.1c0,0,0,0,0,0c1.4,0.6,2.4,1.7,2.9,3.1l1.3,3.6h6.7l1.3-3.6c0.5-1.4,1.6-2.5,2.9-3.1c0,0,0,0,0,0
		c1.3-0.6,2.9-0.5,4.2,0.1l3.5,1.7l4.7-4.7l-1.7-3.5c-0.6-1.3-0.7-2.9-0.1-4.2c0,0,0,0,0,0c0.6-1.4,1.7-2.4,3.1-2.9L49.8,28.2z
		 M24.9,34c-5,0-9.1-4.1-9.1-9.1s4.1-9.1,9.1-9.1c5,0,9.1,4.1,9.1,9.1S30,34,24.9,34z"/>
</g>
</svg>
