<?xml version="1.0" encoding="utf-8"?>
<!-- Generator: Adobe Illustrator 18.1.1, SVG Export Plug-In . SVG Version: 6.00 Build 0)  -->
<!DOCTYPE svg PUBLIC "-//W3C//DTD SVG 1.1//EN" "http://www.w3.org/Graphics/SVG/1.1/DTD/svg11.dtd">
<svg version="1.1" id="Layer_1" xmlns="http://www.w3.org/2000/svg" xmlns:xlink="http://www.w3.org/1999/xlink" x="0px" y="0px"
	 width="50px" height="50px" viewBox="462 0 50 50" enable-background="new 462 0 50 50" xml:space="preserve">
<path id="instagram-6-icon" d="M506.2,21.2h-4.4c0.3,1.2,0.5,2.5,0.5,3.8c0,8.5-6.9,15.4-15.4,15.4c-8.5,0-15.4-6.9-15.4-15.4
	c0-1.3,0.2-2.6,0.5-3.8h-4.4v21.2c0,1.1,0.9,1.9,1.9,1.9h34.6c1.1,0,1.9-0.9,1.9-1.9L506.2,21.2L506.2,21.2z M506.2,7.7
	c0-1.1-0.9-1.9-1.9-1.9h-5.8c-1.1,0-1.9,0.9-1.9,1.9v5.8c0,1.1,0.9,1.9,1.9,1.9h5.8c1.1,0,1.9-0.9,1.9-1.9V7.7z M487,15.4
	c-5.3,0-9.6,4.3-9.6,9.6c0,5.3,4.3,9.6,9.6,9.6c5.3,0,9.6-4.3,9.6-9.6C496.6,19.7,492.3,15.4,487,15.4 M506.2,50h-38.5
	c-3.2,0-5.8-2.6-5.8-5.8V5.8c0-3.2,2.6-5.8,5.8-5.8h38.5c3.2,0,5.8,2.6,5.8,5.8v38.5C512,47.4,509.4,50,506.2,50"/>
</svg>
