<?xml version="1.0" encoding="utf-8"?>
<!-- Generator: Adobe Illustrator 18.1.1, SVG Export Plug-In . SVG Version: 6.00 Build 0)  -->
<!DOCTYPE svg PUBLIC "-//W3C//DTD SVG 1.1//EN" "http://www.w3.org/Graphics/SVG/1.1/DTD/svg11.dtd">
<svg version="1.1" id="Layer_1" xmlns="http://www.w3.org/2000/svg" xmlns:xlink="http://www.w3.org/1999/xlink" x="0px" y="0px"
	 width="50px" height="50px" viewBox="0 0 50 50" enable-background="new 0 0 50 50" xml:space="preserve">
<path id="user-7-icon" fill="#010101" d="M50,49.8H0c-0.2-7.9,3.5-16.2,14.4-22c-2.2-2.3-4.9-6.4-4.9-12.3C9.6,7,16.5,0,25.1,0
	s15.6,7,15.6,15.6c0,6.1-2.8,10.1-5,12.4C46,33.3,50.2,41.8,50,49.8z M5.3,45h39.3C42.3,34.2,30.8,32.2,30,28.6
	c-0.8-3.9,5.8-4.4,5.8-13c0-5.9-4.8-10.7-10.7-10.7S14.4,9.7,14.4,15.6c0,8.5,6.4,9.1,5.6,12.9C19.2,32.2,7.7,34.1,5.3,45z"/>
</svg>
