<?xml version="1.0" encoding="utf-8"?>
<!-- Generator: Adobe Illustrator 18.1.1, SVG Export Plug-In . SVG Version: 6.00 Build 0)  -->
<!DOCTYPE svg PUBLIC "-//W3C//DTD SVG 1.1//EN" "http://www.w3.org/Graphics/SVG/1.1/DTD/svg11.dtd">
<svg version="1.1" xmlns="http://www.w3.org/2000/svg" xmlns:xlink="http://www.w3.org/1999/xlink" x="0px" y="0px" width="50px"
	 height="50px" viewBox="0 0 50 50" enable-background="new 0 0 50 50" xml:space="preserve">
<g id="news">
	<path id="newspaper-5-icon" d="M8.3,46.3V3.6h33.3c0,0,0,23.1,0,26.9c0,8.5-10.7,4.5-10.7,4.5s3.8,11.2-4.9,11.2
		C22.2,46.3,22.7,46.3,8.3,46.3z M42.8,38.4c1.6-1.6,2.5-3.8,2.5-6.1V0H4.7v49.9h23.1c2.3,0,4.5-0.9,6.1-2.5L42.8,38.4z M38.5,16.2
		H11.8v2.4h26.7L38.5,16.2L38.5,16.2z M17.9,20.8h-6.2v2.4h6.2V20.8z M17.9,25.4h-6.2v2.4h6.2V25.4z M38.5,20.8h-6.4v2.4h6.4V20.8z
		 M38.5,25.4h-6.4v2.4h6.4V25.4z M38.5,30H11.8v2.4h26.7L38.5,30L38.5,30z M29.7,20.8h-9.5v7h9.5V20.8z M25.5,12.8l-1.3-5.3h1.4
		l0.7,3.7L27,7.5h1.4l0.7,3.6l0.7-3.6H31l-1.4,5.3h-1.4l-0.7-3.5l-0.8,3.5H25.5z M23.9,11.7h-2.1v-1.1h1.9V9.5h-1.9v-1h2V7.5h-3.3
		v5.3h3.5L23.9,11.7L23.9,11.7z M32.9,11.8c-0.4,0-0.9-0.1-1.3-0.3l-0.1,0l-0.3,1.1l0,0c0.3,0.2,0.9,0.3,1.5,0.3
		c1.6,0,2.2-0.9,2.2-1.7c0-0.8-0.4-1.3-1.4-1.6c-0.7-0.3-0.9-0.4-0.9-0.7c0-0.3,0.3-0.4,0.7-0.4c0.4,0,0.7,0.1,1.1,0.2l0.1,0
		l0.3-1.1l0,0c-0.4-0.2-0.8-0.3-1.4-0.3c-1.2,0-2,0.7-2,1.6c0,0.7,0.5,1.3,1.5,1.6c0.6,0.2,0.8,0.4,0.8,0.7
		C33.6,11.6,33.3,11.8,32.9,11.8z M16.3,9.2l1.9,3.7h1.3V7.5h-1.2v3.3l-1.8-3.3h-1.5v5.3h1.2L16.3,9.2L16.3,9.2z M27.4,34.6H11.8V37
		h15.7V34.6z M27.4,34.6H11.8V37h15.7V34.6z M27.4,39.2H11.8v2.4h15.7V39.2z"/>
</g>
</svg>
