<?xml version="1.0" encoding="utf-8"?>
<!-- Generator: Adobe Illustrator 18.1.1, SVG Export Plug-In . SVG Version: 6.00 Build 0)  -->
<!DOCTYPE svg PUBLIC "-//W3C//DTD SVG 1.1//EN" "http://www.w3.org/Graphics/SVG/1.1/DTD/svg11.dtd">
<svg version="1.1" id="Layer_1" xmlns="http://www.w3.org/2000/svg" xmlns:xlink="http://www.w3.org/1999/xlink" x="0px" y="0px"
	 width="50px" height="50px" viewBox="0 0 50 50" enable-background="new 0 0 50 50" xml:space="preserve">
<path id="user-14-icon" fill="#010101" d="M50,37.5h-9.7C40.3,27,35,32,35,22.8c0-3.4,2.2-5.1,5-5.1c4.2,0,7,3.9,3.1,11.4
	c-1.3,2.5,1.3,3,4.2,3.6C50.2,33.3,50,34.8,50,37.5z M2.7,32.7C5.5,32,8.1,31.4,6.9,29C3,21.5,5.8,17.6,10,17.6c2.8,0,5,1.8,5,5.1
	C15,32,9.7,27,9.7,37.5H0C0,34.8-0.2,33.3,2.7,32.7z M34.2,31.3c-3.6-0.8-7-1.5-5.4-4.6c4.9-9.3,1.3-14.3-3.9-14.3
	c-5.3,0-8.9,5.2-3.9,14.3c1.6,3.1-1.8,3.8-5.4,4.6c-3.6,0.9-3.3,2.8-3.3,6.2h25.1C37.5,34.1,37.8,32.2,34.2,31.3z"/>
</svg>
