<?xml version="1.0" encoding="utf-8"?>
<!-- Generator: Adobe Illustrator 18.1.1, SVG Export Plug-In . SVG Version: 6.00 Build 0)  -->
<!DOCTYPE svg PUBLIC "-//W3C//DTD SVG 1.1//EN" "http://www.w3.org/Graphics/SVG/1.1/DTD/svg11.dtd">
<svg version="1.1" id="remove_circ" xmlns="http://www.w3.org/2000/svg" xmlns:xlink="http://www.w3.org/1999/xlink" x="0px"
	 y="0px" width="50px" height="50px" viewBox="0 0 50 50" enable-background="new 0 0 50 50" xml:space="preserve">
<path fill-rule="evenodd" clip-rule="evenodd" d="M7.6,42.4C-2,32.7-2,17,7.6,7.3c9.6-9.7,25.2-9.7,34.8,0c9.6,9.7,9.6,25.5,0,35.2
	C32.8,52.1,17.2,52.1,7.6,42.4z M40.8,8.9c-8.7-8.8-22.9-8.8-31.6,0c-8.7,8.8-8.7,23.1,0,31.9c8.7,8.8,22.9,8.8,31.6,0
	C49.5,32,49.5,17.7,40.8,8.9z M17.6,36.6l-4.3-4.3l7.4-7.5l-7.4-7.5l4.3-4.3l7.4,7.5l7.4-7.5l4.3,4.3l-7.4,7.5l7.4,7.5l-4.3,4.3
	L25,29.2L17.6,36.6z"/>
</svg>
