<?xml version="1.0" encoding="utf-8"?>
<!-- Generator: Adobe Illustrator 18.1.1, SVG Export Plug-In . SVG Version: 6.00 Build 0)  -->
<!DOCTYPE svg PUBLIC "-//W3C//DTD SVG 1.1//EN" "http://www.w3.org/Graphics/SVG/1.1/DTD/svg11.dtd">
<svg version="1.1" id="Layer_1" xmlns="http://www.w3.org/2000/svg" xmlns:xlink="http://www.w3.org/1999/xlink" x="0px" y="0px"
	 width="50px" height="50px" viewBox="0 0 50 50" enable-background="new 0 0 50 50" xml:space="preserve">
<path d="M25,4.8c5.4,0,10.5,2.1,14.2,5.9s5.9,8.9,5.9,14.2s-2.1,10.5-5.9,14.2c-3.8,3.8-8.9,5.9-14.2,5.9s-10.4-2.1-14.2-5.9
	C6.9,35.5,4.8,30.4,4.8,25s2.1-10.4,5.9-14.2S19.6,4.8,25,4.8 M25,0C11.2,0,0,11.2,0,25s11.2,25,25,25s25-11.2,25-25S38.8,0,25,0
	L25,0z M31.8,28.6c-1.5,0-2.7,0.6-3.6,1.6L19.4,26c0-0.3,0.1-0.6,0.1-0.9c0,0,0-0.1,0-0.2l9-4.7c0.9,0.8,2,1.2,3.2,1.2
	c2.7,0,4.9-2.2,4.9-4.9s-2.2-4.9-4.9-4.9s-4.9,2.2-4.9,4.9c0,0.2,0,0.4,0,0.6l-8.8,4.6c-0.9-1-2.1-1.5-3.6-1.5
	c-2.7,0-4.9,2.2-4.9,4.9s2.2,4.9,4.9,4.9c1.1,0,2.2-0.4,3-1l9.2,4.6v0c0,2.7,2.2,4.9,4.9,4.9s4.9-2.2,4.9-4.9
	C36.7,30.9,34.5,28.6,31.8,28.6z"/>
</svg>
