<?xml version="1.0" encoding="utf-8"?>
<!-- Generator: Adobe Illustrator 18.1.1, SVG Export Plug-In . SVG Version: 6.00 Build 0)  -->
<!DOCTYPE svg PUBLIC "-//W3C//DTD SVG 1.1//EN" "http://www.w3.org/Graphics/SVG/1.1/DTD/svg11.dtd">
<svg version="1.1" xmlns="http://www.w3.org/2000/svg" xmlns:xlink="http://www.w3.org/1999/xlink" x="0px" y="0px" width="50px"
	 height="50px" viewBox="0 0 50 50" enable-background="new 0 0 50 50" xml:space="preserve">
<g id="tag">
	<path id="tag-6-icon" d="M32.1,12.7h-7.4C19.1,3.1,4.7,3,1.1,8.9c-2.8,4.5,0.1,10.5,6.7,10.5l0,0c3,0,5.7-1.5,9.8-0.5v8.2
		l17.9,17.9L50,30.5L32.1,12.7z M7.8,16.4L7.8,16.4c-4.2,0-5.7-3.3-4.1-5.9C6,6.9,15.9,6.4,21,12.7h-3.3v3.1
		C13.1,15,10.2,16.4,7.8,16.4z M27,21.9c-1.7,1.7-4.6,0.8-5.1-1.5c2.5,0.2,4-1.5,3.7-3.6C27.9,17.4,28.6,20.2,27,21.9z"/>
</g>
</svg>
