<?xml version="1.0" encoding="utf-8"?>
<!-- Generator: Adobe Illustrator 18.1.1, SVG Export Plug-In . SVG Version: 6.00 Build 0)  -->
<!DOCTYPE svg PUBLIC "-//W3C//DTD SVG 1.1//EN" "http://www.w3.org/Graphics/SVG/1.1/DTD/svg11.dtd">
<svg version="1.1" id="youtube_hrz" xmlns="http://www.w3.org/2000/svg" xmlns:xlink="http://www.w3.org/1999/xlink" x="0px"
	 y="0px" width="50px" height="50px" viewBox="0 0 50 50" enable-background="new 0 0 50 50" xml:space="preserve">
<path d="M44.6,22.8c-0.3,0-0.5,0.1-0.6,0.4c-0.2,0.3-0.2,0.8-0.2,1.3l0,0.1c0,0.1,0,0.2,0,0.3h1.6v-0.4c0-0.5,0-0.9-0.1-1.2
	C45.1,23,44.9,22.8,44.6,22.8z M45,15H25c-2.8,0-5,2.3-5,5.1v9.8c0,2.8,2.3,5.1,5,5.1H45c2.8,0,5-2.3,5-5.1v-9.8
	C50,17.3,47.7,15,45,15z M28.9,20.3h-2.1v10.6H25V20.3h-2.1v-2.1h6V20.3z M34.5,30.9h-1.7V30c-0.3,0.8-0.9,1.2-1.5,1.2
	c-1.1,0-1.6-0.8-1.6-2.3v-7.5h1.6v6.2c0,0.5,0,0.9,0.1,1.1c0.1,0.4,0.3,0.6,0.6,0.6c0.3,0,0.6-0.2,0.7-0.6c0.1-0.2,0.1-0.6,0.1-1.2
	v-6.1h1.7V30.9z M40.7,29.4c-0.3,1.2-0.8,1.8-1.7,1.8c-0.7,0-1.2-0.4-1.5-1.3v1H36V18.2h1.7v4c0.3-0.7,0.8-1.1,1.4-1.1
	c0.9,0,1.4,0.6,1.7,1.8c0.1,0.6,0.2,1.7,0.2,3.2C41,27.7,40.9,28.8,40.7,29.4z M47.1,26.5h-3.3c0,0.1,0,0.3,0,0.6
	c0,0.7,0,1.2,0.1,1.5c0.1,0.6,0.4,0.9,0.8,0.9c0.6,0,0.8-0.6,0.8-1.9H47c0,0,0,0.1,0,0.2c0,0.1,0,0.1,0,0.2c0,1.1-0.2,1.9-0.6,2.4
	c-0.4,0.5-1,0.8-1.9,0.8c-0.9,0-1.5-0.3-1.9-0.9c-0.3-0.5-0.5-1.2-0.6-2.1c0-0.4-0.1-1.2-0.1-2.3c0-0.9,0-1.6,0.1-1.9
	c0.1-0.8,0.2-1.4,0.5-1.8c0.4-0.7,1.1-1,2-1c0.9,0,1.6,0.4,2,1.1c0.3,0.6,0.5,1.8,0.5,3.5V26.5z M38.5,23c-0.5,0-0.7,0.5-0.8,1.5
	c0,0.2,0,0.9,0,2.1c0,0.9,0,1.5,0.1,1.7c0.1,0.7,0.4,1.1,0.8,1.1c0.4,0,0.7-0.4,0.7-1.3c0-0.2,0-0.8,0-1.9c0-1.1,0-1.7,0-1.9
	C39.1,23.4,38.9,23,38.5,23z M4.9,18.2L3.5,23L2,18.2H0l2.6,7.4V31h1.8v-5.4l2.5-7.4H4.9z M16.1,27.6c0,0.6,0,1-0.1,1.2
	c-0.1,0.4-0.3,0.6-0.7,0.6c-0.3,0-0.5-0.2-0.6-0.6c-0.1-0.2-0.1-0.6-0.1-1.1v-6.3H13V29c0,1.5,0.5,2.3,1.6,2.3
	c0.7,0,1.2-0.4,1.5-1.2v1h1.7v-9.6h-1.7V27.6z M9.1,21.2c-1.1,0-1.8,0.5-2.2,1.5c-0.2,0.7-0.4,1.9-0.4,3.5c0,1.7,0.1,2.8,0.4,3.5
	c0.4,1,1.1,1.5,2.2,1.5c1.1,0,1.8-0.5,2.2-1.5c0.2-0.7,0.4-1.9,0.4-3.5c0-1.7-0.1-2.8-0.4-3.5C11,21.7,10.2,21.2,9.1,21.2z M10,26.7
	c0,1,0,1.6,0,1.8c-0.1,0.7-0.4,1.1-0.8,1.1c-0.4,0-0.7-0.4-0.8-1.3c0-0.1,0-0.8,0-1.9v-0.9c0-0.9,0-1.4,0-1.6c0.1-0.6,0.4-1,0.8-1
	c0.4,0,0.7,0.4,0.8,1.1c0,0.2,0,0.8,0,1.8V26.7z"/>
</svg>
