<?xml version="1.0" encoding="utf-8"?>
<!-- Generator: Adobe Illustrator 19.2.0, SVG Export Plug-In . SVG Version: 6.00 Build 0)  -->
<svg version="1.1" id="Layer_1" xmlns="http://www.w3.org/2000/svg" xmlns:xlink="http://www.w3.org/1999/xlink" x="0px" y="0px"
	 width="149px" height="78.4px" viewBox="0 0 149 78.4" style="enable-background:new 0 0 149 78.4;" xml:space="preserve">
<style type="text/css">
	.st0{fill:#FFFFFF;}
</style>
<g>
	<path class="st0" d="M58.4,28.4h-10c-0.2,0-0.4,0.2-0.4,0.4v2.6c0,0.2,0.2,0.4,0.4,0.4h10c0.2,0,0.4-0.2,0.4-0.4v-2.6
		C58.8,28.6,58.6,28.4,58.4,28.4z M32.1,7.9c-0.2-0.1-0.4-0.1-0.6,0L11.7,19.4c-0.4,0.2-0.9-0.1-0.9-0.5v-1.5c0-0.2,0.1-0.4,0.3-0.5
		L28.3,6.7c0.4-0.2,0.4-0.8,0-1.1l-9.5-5.5c-0.2-0.1-0.4-0.1-0.6,0L0.3,10.6C0.1,10.7,0,10.9,0,11.2v20.9c0,0.2,0.1,0.4,0.3,0.5
		L5,35.3c0.2,0.1,0.4,0.1,0.6,0l19.9-11.5c0.4-0.2,0.9,0.1,0.9,0.5v1.5c0,0.2-0.1,0.4-0.3,0.5L8.7,36.4c-0.4,0.2-0.4,0.8,0,1.1
		l9.5,5.5c0.2,0.1,0.4,0.1,0.6,0l17.9-10.4c0.2-0.1,0.3-0.3,0.3-0.5V11.2c0-0.2-0.1-0.4-0.3-0.5L32.1,7.9z M3.5,32.2l-1.3-0.8
		c-0.2-0.1-0.3-0.3-0.3-0.5V12.3c0-0.2,0.1-0.4,0.3-0.5l1.3-0.7c0.4-0.2,0.9,0.1,0.9,0.5v20.2C4.4,32.2,3.9,32.5,3.5,32.2z
		 M23.3,4.9l1.3,0.7c0.4,0.2,0.4,0.8,0,1.1l-12.9,7.5c-0.4,0.2-0.9-0.1-0.9-0.5v-1.5c0-0.2,0.1-0.4,0.3-0.5l11.6-6.8
		C22.9,4.8,23.1,4.8,23.3,4.9z M26.1,21.2l-18.9,11c-0.4,0.2-0.9-0.1-0.9-0.5V9.8c0-0.2,0.1-0.4,0.3-0.5l11.7-6.8
		c0.2-0.1,0.4-0.1,0.6,0l1.3,0.6c0.4,0.2,0.4,0.8,0,1.1l-11,6.4c-0.2,0.1-0.3,0.3-0.3,0.5v16c0,0.5,0.5,0.8,0.9,0.5l15.7-9.1
		c0.4-0.2,0.9,0.1,0.9,0.5v1.5C26.4,20.9,26.3,21.1,26.1,21.2z M13.8,38.3l-1.3-0.7c-0.4-0.2-0.4-0.8,0-1.1l13-7.6
		c0.4-0.2,0.9,0.1,0.9,0.5v1.5c0,0.2-0.1,0.4-0.3,0.5l-11.7,6.8C14.2,38.4,14,38.4,13.8,38.3z M30.5,34l-11.7,6.8
		c-0.2,0.1-0.4,0.1-0.6,0l-1.3-0.7c-0.4-0.2-0.4-0.8,0-1.1L28,32.6c0.2-0.1,0.3-0.3,0.3-0.5v-8.4l0,0v-7.8c0-0.5-0.5-0.8-0.9-0.5
		l-15.7,9.1c-0.4,0.2-0.9-0.1-0.9-0.5v-1.4c0-0.2,0.1-0.4,0.3-0.5l18.9-11c0.4-0.2,0.9,0.1,0.9,0.5v22C30.8,33.7,30.7,33.9,30.5,34z
		 M35.2,31c0,0.2-0.1,0.4-0.3,0.5l-1.3,0.7c-0.4,0.2-0.9-0.1-0.9-0.5V11.5c0-0.5,0.5-0.8,0.9-0.5l1.3,0.8c0.2,0.1,0.3,0.3,0.3,0.5
		V31z M64.5,30.1c0.3-0.1,0.6-0.4,0.6-0.8c0-0.5-0.4-0.9-1.1-0.9h-1.4v3.5H64c0.7,0,1.2-0.4,1.2-1C65.2,30.5,64.9,30.2,64.5,30.1z
		 M63,28.8h0.9c0.5,0,0.7,0.3,0.7,0.6c0,0.3-0.2,0.6-0.7,0.6H63V28.8z M64,31.6h-1v-1.2h1c0.4,0,0.8,0.2,0.8,0.6
		C64.8,31.3,64.5,31.6,64,31.6z M68.2,30.1L68.2,30.1l-1-1.7h-0.5l1.3,2.1v1.4h0.4v-1.4l1.3-2.1h-0.5L68.2,30.1z M75.5,31.6
		c-0.8,0-1.3-0.6-1.3-1.5c0-0.8,0.5-1.4,1.3-1.4c0.3,0,0.6,0.1,0.9,0.3l0.2-0.3c-0.3-0.2-0.7-0.4-1.1-0.4c-1,0-1.7,0.7-1.7,1.8
		c0,1.1,0.7,1.8,1.7,1.8c0.5,0,0.9-0.2,1.2-0.5l-0.3-0.3C76.2,31.5,75.9,31.6,75.5,31.6z M80.1,28.4c-1,0-1.7,0.7-1.7,1.8
		c0,1.1,0.8,1.8,1.7,1.8c1,0,1.7-0.7,1.7-1.8C81.9,29.1,81.1,28.4,80.1,28.4z M80.1,31.6c-0.7,0-1.3-0.5-1.3-1.5
		c0-0.9,0.6-1.4,1.3-1.4c0.7,0,1.3,0.5,1.3,1.4C81.4,31.1,80.9,31.6,80.1,31.6z M85.4,30.2l-1.2-1.8h-0.5v3.5h0.4V29l1.3,1.9
		l1.3-1.9v2.9h0.4v-3.5h-0.5L85.4,30.2z M90.8,31.6c-0.8,0-1.3-0.6-1.3-1.5c0-0.8,0.5-1.4,1.3-1.4c0.3,0,0.6,0.1,0.9,0.3l0.2-0.3
		c-0.3-0.2-0.7-0.4-1.1-0.4c-1,0-1.7,0.7-1.7,1.8c0,1.1,0.7,1.8,1.7,1.8c0.5,0,0.9-0.2,1.2-0.5l-0.3-0.3
		C91.5,31.5,91.2,31.6,90.8,31.6z M94.9,28.4l-1.3,3.5h0.5l0.3-0.9H96l0.3,0.9h0.5l-1.3-3.5H94.9z M94.5,30.7l0.7-1.9l0,0l0.7,1.9
		H94.5z M98.8,29.3c0-0.3,0.3-0.6,0.8-0.6c0.4,0,0.7,0.1,1,0.2l0.2-0.3c-0.3-0.2-0.7-0.3-1.1-0.3c-0.7,0-1.2,0.4-1.2,1
		c0,1.3,2,0.7,2,1.7c0,0.3-0.3,0.6-0.8,0.6c-0.4,0-0.8-0.1-1.1-0.3l-0.2,0.3c0.3,0.2,0.8,0.4,1.3,0.4c0.8,0,1.2-0.4,1.2-1
		C100.8,29.6,98.8,30.3,98.8,29.3z M102.4,28.8h1.3v3.1h0.4v-3.1h1.3v-0.4h-2.9v0.4H102.4z M110.6,29.3c0-0.3,0.3-0.6,0.8-0.6
		c0.4,0,0.7,0.1,1,0.2l0.2-0.3c-0.3-0.2-0.7-0.3-1.1-0.3c-0.7,0-1.2,0.4-1.2,1c0,1.3,2,0.7,2,1.7c0,0.3-0.3,0.6-0.8,0.6
		c-0.4,0-0.8-0.1-1.1-0.3l-0.2,0.3c0.3,0.2,0.8,0.4,1.3,0.4c0.8,0,1.2-0.4,1.2-1C112.6,29.6,110.6,30.3,110.6,29.3z M115.9,28.4
		h-1.4v3.5h0.4v-1.4h1c0.9,0,1.2-0.6,1.2-1.1S116.7,28.4,115.9,28.4z M115.8,30.2h-0.9v-1.4h1c0.6,0,0.8,0.3,0.8,0.7
		C116.6,29.8,116.4,30.2,115.8,30.2z M119.4,30.3h1.8v-0.4h-1.8v-1.2h2v-0.4H119v3.5h2.4v-0.4h-2V30.3z M124.8,31.6
		c-0.8,0-1.3-0.6-1.3-1.5c0-0.8,0.5-1.4,1.3-1.4c0.3,0,0.6,0.1,0.9,0.3l0.2-0.3c-0.3-0.2-0.7-0.4-1.1-0.4c-1,0-1.7,0.7-1.7,1.8
		c0,1.1,0.7,1.8,1.7,1.8c0.5,0,0.9-0.2,1.2-0.5l-0.3-0.3C125.6,31.5,125.2,31.6,124.8,31.6z M127.7,28.8h1.3v3.1h0.4v-3.1h1.3v-0.4
		h-2.9L127.7,28.8L127.7,28.8z M133,28.4l-1.3,3.5h0.5l0.3-0.9h1.6l0.3,0.9h0.5l-1.3-3.5H133z M132.6,30.7l0.7-1.9l0,0l0.7,1.9
		H132.6z M138.1,31.6c-0.8,0-1.3-0.6-1.3-1.5c0-0.8,0.5-1.4,1.3-1.4c0.3,0,0.6,0.1,0.9,0.3l0.2-0.3c-0.3-0.2-0.7-0.4-1.1-0.4
		c-1,0-1.7,0.7-1.7,1.8c0,1.1,0.7,1.8,1.7,1.8c0.5,0,0.9-0.2,1.2-0.5l-0.3-0.3C138.8,31.5,138.5,31.6,138.1,31.6z M142.7,28.4
		c-1,0-1.7,0.7-1.7,1.8c0,1.1,0.8,1.8,1.7,1.8s1.7-0.7,1.7-1.8C144.5,29.1,143.7,28.4,142.7,28.4z M142.7,31.6
		c-0.7,0-1.3-0.5-1.3-1.5c0-0.9,0.6-1.4,1.3-1.4s1.3,0.5,1.3,1.4C144,31.1,143.4,31.6,142.7,31.6z M148.3,30.4
		c0.5-0.2,0.7-0.6,0.7-1c0-0.5-0.3-1-1.2-1h-1.5v3.5h0.4v-1.4h1.1l0.7,1.4h0.5L148.3,30.4z M147.8,30.2h-1v-1.4h1
		c0.6,0,0.8,0.3,0.8,0.7C148.6,29.8,148.3,30.2,147.8,30.2z M48.2,23.6c1.3,0.7,3.4,1.3,5.2,1.3c3.6,0,5.4-1.9,5.4-4.3
		c0-5.2-6.8-3.8-6.8-5.6c0-0.5,0.5-0.9,1.5-0.9c0.9,0,2,0.2,3.1,0.7c0.2,0.1,0.5,0,0.6-0.4l0.9-1.9c0.1-0.2,0-0.5-0.2-0.6
		c-1.6-0.7-3.1-1.1-4.6-1.1c-3.2,0-5.1,1.9-5.1,4.2c0,5.1,6.8,3.8,6.8,5.6c0,0.6-0.6,0.9-1.6,0.9c-1.1,0-2.4-0.4-3.5-1
		c-0.2-0.1-0.4,0-0.6,0.2L48,22.9C47.9,23.2,48,23.5,48.2,23.6z M68.4,11.1H63c-0.2,0-0.4,0.2-0.4,0.4v12.7c0,0.2,0.2,0.4,0.4,0.4
		h2.9c0.2,0,0.4-0.2,0.4-0.4v-3.8c0-0.2,0.2-0.4,0.4-0.4h1.7c4.1,0,5.5-2.2,5.5-4.5C73.9,13.3,72.5,11.1,68.4,11.1z M68.4,17.2h-1.7
		c-0.2,0-0.4-0.2-0.4-0.4v-2.4c0-0.2,0.2-0.4,0.4-0.4h1.7c1.1,0,1.8,0.5,1.8,1.6C70.2,16.7,69.5,17.2,68.4,17.2z M87.2,21.5h-5.6
		c-0.2,0-0.4-0.2-0.4-0.4v-1.4c0-0.2,0.2-0.4,0.4-0.4h4.8c0.2,0,0.4-0.2,0.4-0.4V17c0-0.2-0.2-0.4-0.4-0.4h-4.8
		c-0.2,0-0.4-0.2-0.4-0.4V15c0-0.2,0.2-0.4,0.4-0.4h5.6c0.2,0,0.4-0.2,0.4-0.4v-2.4c0-0.2-0.2-0.4-0.4-0.4h-9.3
		c-0.2,0-0.4,0.2-0.4,0.4v12.7c0,0.2,0.2,0.4,0.4,0.4h9.3c0.2,0,0.4-0.2,0.4-0.4v-2.4C87.6,21.7,87.4,21.5,87.2,21.5z M103.1,22.5
		l-1.6-1.7c-0.1-0.2-0.4-0.2-0.6,0c-0.7,0.6-1.6,1-2.8,1c-2.2,0-3.5-1.5-3.5-3.9S96,14,98.1,14c1.2,0,2,0.4,2.7,1
		c0.2,0.1,0.4,0.1,0.7-0.2l1.5-1.7c0.2-0.2,0.1-0.5-0.1-0.6c-1.4-1-2.9-1.6-4.8-1.6c-4.2,0-7.1,3-7.1,7s2.9,7,7,7
		c2,0,3.7-0.6,5.1-1.9C103.3,22.9,103.3,22.6,103.1,22.5z M117.4,11.1h-11.2c-0.2,0-0.4,0.2-0.4,0.4v2.4c0,0.2,0.2,0.4,0.4,0.4h3.3
		c0.2,0,0.4,0.2,0.4,0.4v9.4c0,0.2,0.2,0.4,0.4,0.4h2.8c0.2,0,0.4-0.2,0.4-0.4v-9.4c0-0.2,0.2-0.4,0.4-0.4h3.3
		c0.2,0,0.4-0.2,0.4-0.4v-2.4C117.8,11.3,117.6,11.1,117.4,11.1z M129.3,24.7h3c0.3,0,0.5-0.3,0.4-0.6l-2-4.5
		c-0.1-0.2,0-0.4,0.2-0.5c1.3-0.8,1.9-2.1,1.9-3.5c0-2.3-1.4-4.4-5.5-4.4h-5.6c-0.2,0-0.4,0.2-0.4,0.4v12.7c0,0.2,0.2,0.4,0.4,0.4
		h2.9c0.2,0,0.4-0.2,0.4-0.4v-3.9c0-0.2,0.2-0.4,0.4-0.4h1.6c0.2,0,0.3,0.1,0.4,0.3l1.6,4.2C129,24.6,129.1,24.7,129.3,24.7z
		 M127.3,17.2h-1.9c-0.2,0-0.4-0.2-0.4-0.4v-2.4c0-0.2,0.2-0.4,0.4-0.4h1.9c1.1,0,1.8,0.5,1.8,1.6S128.4,17.2,127.3,17.2z
		 M148.9,24.1l-4.4-12.7c-0.1-0.2-0.2-0.3-0.4-0.3h-3.5c-0.2,0-0.3,0.1-0.4,0.3l-4.4,12.7c-0.1,0.3,0.1,0.6,0.4,0.6h3.1
		c0.2,0,0.4-0.1,0.4-0.3l0.4-1.4c0.1-0.2,0.2-0.3,0.4-0.3h3.7c0.2,0,0.3,0.1,0.4,0.3l0.4,1.4c0.1,0.2,0.2,0.3,0.4,0.3h3.1
		C148.8,24.7,149,24.4,148.9,24.1z M143.1,19.9h-1.6c-0.3,0-0.5-0.3-0.4-0.5l1.1-3.6c0-0.1,0.1-0.1,0.2,0l1.1,3.6
		C143.6,19.6,143.4,19.9,143.1,19.9z"/>
</g>
<g>
	<path class="st0" d="M86,78.4c-3.7,0-7.1-1.5-9.6-4c-2.5-2.5-4-5.9-4-9.6c0-3.7,1.5-7.1,4-9.6c2.5-2.5,5.9-4,9.6-4
		c3.7,0,7.1,1.5,9.6,4c2.5,2.5,4,5.9,4,9.6c0,3.7-1.5,7.1-4,9.6C93.1,76.9,89.7,78.4,86,78.4L86,78.4L86,78.4z M77.8,56.6
		c-2.1,2.1-3.4,5-3.4,8.2c0,3.2,1.3,6.1,3.4,8.2c2.1,2.1,5,3.4,8.2,3.4c3.2,0,6.1-1.3,8.2-3.4c2.1-2.1,3.4-5,3.4-8.2
		c0-3.2-1.3-6.1-3.4-8.2c-2.1-2.1-5-3.4-8.2-3.4C82.8,53.2,79.9,54.5,77.8,56.6"/>
	<path class="st0" d="M87.7,77c-3.3,0-6.3-1.3-8.5-3.5c-2.2-2.2-3.5-5.2-3.5-8.5c0-3.3,1.3-6.3,3.5-8.5c2.2-2.2,5.2-3.5,8.5-3.5
		c3.3,0,6.3,1.3,8.5,3.5c2.2,2.2,3.5,5.2,3.5,8.5c0,3.3-1.3,6.3-3.5,8.5C94,75.6,91,77,87.7,77L87.7,77z M82.2,59.6
		C80.8,61,80,62.9,80,65c0,2.1,0.9,4,2.3,5.4c1.4,1.4,3.3,2.3,5.4,2.3c2.1,0,4-0.9,5.4-2.3c1.4-1.4,2.3-3.3,2.3-5.4
		c0-2.1-0.9-4-2.3-5.4c-1.4-1.4-3.3-2.3-5.4-2.3C85.5,57.3,83.6,58.2,82.2,59.6"/>
	<path class="st0" d="M116.8,67.1c0,2.9,2.5,3.9,3.7,3.9c2.2,0,3.5-1.5,3.6-2.7h-2.1c-0.2,0.8-1.1,0.9-1.6,0.9
		c-0.9,0-1.8-0.7-1.8-2.1c0-1.6,1.2-2.1,1.9-2.1c1,0,1.5,0.8,1.5,0.9h0.1h1.9c-0.1-0.6-0.8-2.7-3.5-2.7
		C118.7,63.3,116.8,64.7,116.8,67.1"/>
	<path class="st0" d="M101.6,65.7h0.3h1.5c0.1-0.1,0.4-0.9,1.6-0.9c0.5,0,0.8,0.1,1,0.2c0.3,0.2,0.3,0.4,0.3,0.5
		c0,0.2-0.1,0.3-0.1,0.3c-0.1,0.1-0.3,0.2-0.5,0.3c-0.2,0-0.4,0.1-0.7,0.1c-0.2,0-1.6,0.2-1.9,0.3c-1.1,0.2-1.9,0.9-1.9,2.1
		c0,1.8,1.5,2.1,1.9,2.2c0.4,0.1,0.7,0.1,1.1,0.1c0.6,0,1-0.1,1.3-0.2c0.4-0.1,0.7-0.3,0.9-0.6c0,0.2,0.1,0.3,0.1,0.5
		c0,0.1,0,0.1,0.1,0.2h0.2h1.6c-0.1-0.1-0.2-0.6-0.2-1.2v-3.8c0-0.8-0.5-2.5-3.2-2.5C102.7,63.3,101.6,64.9,101.6,65.7 M106.5,67.3
		v0.5c0,0,0.1,0.6-0.1,0.8c-0.5,0.5-1.2,0.7-1.9,0.7c-0.4,0-1.3-0.1-1.3-0.7c0-0.7,0.7-0.8,1.5-0.9c0.4,0,0.8,0,1.1-0.1
		C106.1,67.5,106.3,67.4,106.5,67.3"/>
	<path class="st0" d="M111,63.5h-2l2.9,7.4c0,0-0.3,1.3-1.3,1.6c-0.2,0.1-0.4,0-0.7,0v1.7c0.4,0.1,0.7,0.1,1.1,0
		c0.4-0.1,1.6-0.2,2.3-2.1l3.2-8.4l0.1-0.3h-2.1l-1.6,4.9l-0.1,0.4l-1.6-4.7L111,63.5z"/>
	<path class="st0" d="M88.5,63.8c-0.4,0-0.7,0.2-0.9,0.4c-0.2,0.3-0.4,0.6-0.4,0.9V67c0,0.2,0.1,0.3,0.3,0.3h0.3
		c0.1,0,0.2,0,0.2,0.1c0.1,0.1,0.1,0.2,0.1,0.3v3.4v0.1c0,0,0.1,0.1,0.1,0.2c0.1,0.1,0.2,0.1,0.2,0.1h1.9c0.2,0,0.3-0.1,0.3-0.3
		v-3.4c0-0.1,0-0.2,0.1-0.3c0.1-0.1,0.2-0.1,0.2-0.1h0.3c0.2,0,0.4-0.1,0.4-0.3v-1.8c0-0.4-0.1-0.7-0.4-0.9c-0.3-0.3-0.6-0.4-1-0.4
		H88.5z"/>
	<path class="st0" d="M88.3,62c0,0.3,0.1,0.6,0.4,0.9c0.2,0.2,0.5,0.4,0.9,0.4c0.3,0,0.6-0.1,0.8-0.4c0.2-0.2,0.3-0.5,0.4-0.9
		c0-0.3-0.1-0.6-0.4-0.9c-0.2-0.2-0.5-0.3-0.8-0.4c-0.3,0-0.6,0.1-0.9,0.4C88.4,61.4,88.3,61.7,88.3,62"/>
	<path class="st0" d="M81.4,66c0-4.4,3.6-8,8-8c4.4,0,8,3.6,8,8c0,4.4-3.6,8-8,8C85,74.1,81.4,70.5,81.4,66 M84.4,61
		c-1.3,1.3-2.1,3-2.1,5c0,1.9,0.8,3.7,2.1,5c1.3,1.3,3,2.1,5,2.1c1.9,0,3.7-0.8,5-2.1c1.3-1.3,2.1-3,2.1-5c0-1.9-0.8-3.7-2.1-5
		c-1.3-1.3-3-2.1-5-2.1C87.5,59,85.7,59.8,84.4,61"/>
	<polygon class="st0" points="114.2,75.4 114.7,72.2 114.8,72.2 116.1,74.9 117.4,72.2 117.4,72.2 117.9,75.4 117.6,75.4 
		117.2,73.1 116.1,75.4 116,75.4 114.9,73.1 114.6,75.4 	"/>
	<polygon class="st0" points="119.4,72.2 121.2,72.2 121.2,72.5 119.7,72.5 119.7,73.6 121.2,73.6 121.2,73.9 119.7,73.9 
		119.7,75.1 121.2,75.1 121.2,75.4 119.4,75.4 	"/>
	<path class="st0" d="M122.7,75.4v-3.2h0.7c0.5,0,0.8,0,1,0.1c0.3,0.1,0.6,0.3,0.7,0.6c0.2,0.3,0.3,0.6,0.3,1c0,0.3-0.1,0.6-0.2,0.8
		c-0.1,0.2-0.3,0.4-0.5,0.5c-0.2,0.1-0.5,0.2-0.9,0.2H122.7z M123,75.1h0.4c0.4,0,0.8,0,0.9-0.1c0.2-0.1,0.4-0.2,0.6-0.4
		c0.1-0.2,0.2-0.5,0.2-0.7c0-0.3-0.1-0.6-0.2-0.8c-0.2-0.2-0.4-0.4-0.6-0.5c-0.2-0.1-0.5-0.1-1-0.1H123V75.1z"/>
	<rect x="126.9" y="72.2" class="st0" width="0.3" height="3.2"/>
	<path class="st0" d="M130.1,72.2l1.5,3.2h-0.3l-0.5-1.1h-1.4l-0.5,1.1h-0.4L130.1,72.2L130.1,72.2z M130.1,72.9l-0.6,1.2h1.1
		L130.1,72.9z"/>
	<g>
		<path class="st0" d="M18.1,61.9c0.4-0.1,1-0.1,1.7-0.1c0.9,0,1.5,0.2,1.9,0.6c0.4,0.3,0.6,0.8,0.6,1.4c0,0.6-0.2,1.1-0.5,1.4
			c-0.5,0.5-1.2,0.7-2.1,0.7c-0.3,0-0.5,0-0.7-0.1v2.7h-0.9V61.9z M19,65.2c0.2,0,0.4,0.1,0.7,0.1c1,0,1.7-0.5,1.7-1.4
			c0-0.9-0.6-1.3-1.6-1.3c-0.4,0-0.7,0-0.8,0.1V65.2z"/>
		<path class="st0" d="M27.6,66.1c0,1.8-1.2,2.6-2.4,2.6c-1.3,0-2.3-1-2.3-2.5c0-1.6,1.1-2.6,2.4-2.6C26.6,63.6,27.6,64.7,27.6,66.1
			z M23.7,66.2c0,1.1,0.6,1.9,1.5,1.9c0.8,0,1.5-0.8,1.5-1.9c0-0.8-0.4-1.9-1.4-1.9C24.2,64.3,23.7,65.3,23.7,66.2z"/>
		<path class="st0" d="M28.9,63.8l0.6,2.5c0.1,0.5,0.3,1,0.4,1.5h0c0.1-0.5,0.3-1,0.4-1.5l0.8-2.5h0.7l0.7,2.4
			c0.2,0.6,0.3,1.1,0.4,1.6h0c0.1-0.5,0.2-1,0.4-1.6l0.7-2.4h0.9l-1.6,4.8h-0.8L32,66.3c-0.2-0.5-0.3-1-0.4-1.6h0
			c-0.1,0.6-0.3,1.1-0.4,1.6l-0.8,2.3h-0.8L28,63.8H28.9z"/>
		<path class="st0" d="M36.3,66.3c0,1.2,0.8,1.7,1.7,1.7c0.6,0,1-0.1,1.3-0.2l0.1,0.6c-0.3,0.1-0.8,0.3-1.6,0.3
			c-1.5,0-2.4-1-2.4-2.4s0.9-2.6,2.3-2.6c1.6,0,2,1.4,2,2.3c0,0.2,0,0.3,0,0.4H36.3z M38.9,65.7c0-0.6-0.2-1.4-1.2-1.4
			c-0.9,0-1.3,0.8-1.3,1.4H38.9z"/>
		<path class="st0" d="M40.9,65.3c0-0.6,0-1.1,0-1.5h0.8l0,0.9h0c0.2-0.6,0.7-1.1,1.3-1.1c0.1,0,0.2,0,0.2,0v0.8c-0.1,0-0.2,0-0.3,0
			c-0.6,0-1.1,0.5-1.2,1.1c0,0.1,0,0.3,0,0.4v2.6h-0.9V65.3z"/>
		<path class="st0" d="M44.5,66.3c0,1.2,0.8,1.7,1.7,1.7c0.6,0,1-0.1,1.3-0.2l0.1,0.6c-0.3,0.1-0.8,0.3-1.6,0.3
			c-1.5,0-2.4-1-2.4-2.4s0.9-2.6,2.3-2.6c1.6,0,2,1.4,2,2.3c0,0.2,0,0.3,0,0.4H44.5z M47.1,65.7c0-0.6-0.2-1.4-1.2-1.4
			c-0.9,0-1.3,0.8-1.3,1.4H47.1z"/>
		<path class="st0" d="M53.2,61.5v5.8c0,0.4,0,0.9,0,1.2h-0.8l0-0.8h0c-0.3,0.5-0.9,1-1.6,1c-1.2,0-2.1-1-2.1-2.5
			c0-1.6,1-2.6,2.2-2.6c0.7,0,1.2,0.3,1.5,0.7h0v-2.9H53.2z M52.3,65.7c0-0.1,0-0.3,0-0.4c-0.1-0.6-0.6-1-1.3-1
			c-0.9,0-1.4,0.8-1.4,1.9c0,1,0.5,1.8,1.4,1.8c0.6,0,1.1-0.4,1.3-1c0-0.1,0-0.2,0-0.4V65.7z"/>
		<path class="st0" d="M56.8,61.9c0.4-0.1,1-0.1,1.6-0.1c0.9,0,1.4,0.1,1.8,0.5c0.3,0.3,0.6,0.7,0.6,1.2c0,0.6-0.4,1.2-1.1,1.5v0
			c0.6,0.2,1.4,0.7,1.4,1.7c0,0.6-0.2,1-0.6,1.3c-0.5,0.4-1.2,0.6-2.3,0.6c-0.6,0-1.1,0-1.3-0.1V61.9z M57.7,64.7h0.8
			c0.9,0,1.5-0.5,1.5-1.1c0-0.8-0.6-1.1-1.5-1.1c-0.4,0-0.6,0-0.8,0.1V64.7z M57.7,67.9c0.2,0,0.4,0,0.7,0c0.9,0,1.7-0.3,1.7-1.3
			c0-0.9-0.8-1.3-1.7-1.3h-0.7V67.9z"/>
		<path class="st0" d="M62.6,63.8l1.1,2.9c0.1,0.3,0.2,0.7,0.3,1h0c0.1-0.3,0.2-0.7,0.3-1l1-2.8h0.9l-1.3,3.4
			c-0.6,1.7-1.1,2.5-1.7,3c-0.4,0.4-0.9,0.5-1.1,0.6l-0.2-0.7c0.2-0.1,0.5-0.2,0.8-0.4c0.2-0.2,0.5-0.5,0.7-1c0-0.1,0.1-0.2,0.1-0.2
			c0,0,0-0.1-0.1-0.2l-1.8-4.5H62.6z"/>
	</g>
</g>
</svg>
