<?xml version="1.0" encoding="utf-8"?>
<!-- Generator: Adobe Illustrator 19.1.1, SVG Export Plug-In . SVG Version: 6.00 Build 0)  -->
<svg version="1.1" id="Layer_1" xmlns="http://www.w3.org/2000/svg" xmlns:xlink="http://www.w3.org/1999/xlink" x="0px" y="0px"
	 width="50px" height="50px" viewBox="0 0 50 50" style="enable-background:new 0 0 50 50;" xml:space="preserve">
<path d="M25,5.7c10.7,0,19.3,8.6,19.3,19.3c0,10.7-8.6,19.3-19.3,19.3C14.3,44.3,5.7,35.7,5.7,25C5.7,14.3,14.3,5.7,25,5.7 M25,1
	C11.7,1,1,11.7,1,25c0,13.3,10.7,24,24,24s24-10.7,24-24C49,11.7,38.3,1,25,1L25,1z M25.2,39.4c-1.7,0-3.1-1.4-3.1-3.1
	c0-1.7,1.4-3.1,3.1-3.1c1.7,0,3.1,1.4,3.1,3.1C28.3,38,26.9,39.4,25.2,39.4z M27.6,30.3v0.6c0,0-4.6,0-5.1,0v-0.6
	c0-1.6,0.2-3.6,2-5.3c1.8-1.7,4.1-3.2,4.1-5.4c0-2.4-1.7-3.7-3.8-3.7c-3.5,0-3.7,3.6-3.8,4.4h-4.9c0.1-3.8,1.7-9.1,8.8-9.1
	c6.1,0,8.8,4.1,8.8,7.9C33.8,25.3,27.6,26.4,27.6,30.3z"/>
</svg>
