<?xml version="1.0" encoding="utf-8"?>
<!-- Generator: Adobe Illustrator 19.1.1, SVG Export Plug-In . SVG Version: 6.00 Build 0)  -->
<svg version="1.1" id="Layer_1" xmlns="http://www.w3.org/2000/svg" xmlns:xlink="http://www.w3.org/1999/xlink" x="0px" y="0px"
	 width="50px" height="50px" viewBox="0 0 50 50" style="enable-background:new 0 0 50 50;" xml:space="preserve">
<path d="M25,1C11.7,1,1,11.7,1,25c0,13.3,10.8,24,24,24c13.3,0,24-10.7,24-24C49,11.7,38.3,1,25,1z M32.6,26.6l-9.1,9.1
	c-0.4,0.4-1,0.7-1.6,0.7c-0.6,0-1.1-0.2-1.6-0.7c-0.9-0.9-0.9-2.3,0-3.1l7.6-7.6l-7.6-7.6c-0.9-0.9-0.9-2.3,0-3.1
	c0.9-0.9,2.3-0.9,3.2,0l9.1,9.1C33.5,24.3,33.5,25.7,32.6,26.6z"/>
</svg>
