<?xml version="1.0" encoding="utf-8"?>
<!-- Generator: Adobe Illustrator 19.1.1, SVG Export Plug-In . SVG Version: 6.00 Build 0)  -->
<svg version="1.1" id="Layer_1" xmlns="http://www.w3.org/2000/svg" xmlns:xlink="http://www.w3.org/1999/xlink" x="0px" y="0px"
	 width="50px" height="50px" viewBox="0 0 50 50" style="enable-background:new 0 0 50 50;" xml:space="preserve">
<path d="M37.9,29.6H21.7V11.7h5.2v12.6h11V29.6z M25,6.2C14.6,6.2,6.2,14.6,6.2,25c0,10.4,8.4,18.8,18.8,18.8
	c10.4,0,18.8-8.4,18.8-18.8C43.8,14.6,35.4,6.2,25,6.2 M25,1c13.3,0,24,10.7,24,24c0,13.3-10.7,24-24,24S1,38.3,1,25
	C1,11.7,11.7,1,25,1z"/>
</svg>
