<?xml version="1.0" encoding="utf-8"?>
<!-- Generator: Adobe Illustrator 19.1.1, SVG Export Plug-In . SVG Version: 6.00 Build 0)  -->
<svg version="1.1" id="Layer_1" xmlns="http://www.w3.org/2000/svg" xmlns:xlink="http://www.w3.org/1999/xlink" x="0px" y="0px"
	 width="50px" height="50px" viewBox="0 0 50 50" style="enable-background:new 0 0 50 50;" xml:space="preserve">
<style type="text/css">
	.st0{fill:#231F20;}
</style>
<path class="st0" d="M25,1C11.8,1,1,11.8,1,25c0,13.2,10.8,24,24,24c13.2,0,24-10.8,24-24C49,11.8,38.2,1,25,1z M37.4,24.2
	c0.2-4.8,2-9.5,5.1-13.3c2.9,3.7,4.7,8.3,4.9,13.3H37.4z M47.4,25.8c-0.2,5.1-2,9.7-5,13.4c-3.1-3.8-4.8-8.5-5-13.4H47.4z M41.5,9.8
	c-3.4,4.1-5.4,9.2-5.6,14.4H25.8V2.6C32,2.8,37.5,5.5,41.5,9.8z M24.2,2.6v21.6H14.1C13.9,18.9,12,13.9,8.5,9.8
	C12.5,5.5,18,2.8,24.2,2.6z M2.6,24.2c0.2-5,2-9.6,4.9-13.3c3.1,3.8,4.9,8.4,5.1,13.3H2.6z M12.6,25.8c-0.1,4.9-1.9,9.6-5,13.4
	c-3-3.7-4.9-8.3-5-13.4H12.6z M8.7,40.4c3.4-4.1,5.3-9.3,5.5-14.6h10.1v21.6C18.1,47.2,12.6,44.5,8.7,40.4z M25.8,47.4V25.8h10.1
	c0.1,5.3,2.1,10.5,5.5,14.6C37.4,44.5,31.9,47.2,25.8,47.4z"/>
</svg>
