<?xml version="1.0" encoding="utf-8"?>
<!-- Generator: Adobe Illustrator 19.1.1, SVG Export Plug-In . SVG Version: 6.00 Build 0)  -->
<svg version="1.1" id="Layer_1" xmlns="http://www.w3.org/2000/svg" xmlns:xlink="http://www.w3.org/1999/xlink" x="0px" y="0px"
	 width="50px" height="50px" viewBox="0 0 50 50" style="enable-background:new 0 0 50 50;" xml:space="preserve">
<style type="text/css">
	.st0{fill:#231F20;}
</style>
<g>
	<path class="st0" d="M25.8,17.3h-1.5c0,3.8-3.1,7-7,7c-3.8,0-7-3.1-7-7H8.7c0,4.7,3.8,8.5,8.5,8.5C22,25.8,25.8,22,25.8,17.3z"/>
	<rect x="8" y="8" class="st0" width="3.1" height="3.1"/>
	<rect x="23.5" y="8" class="st0" width="3.1" height="3.1"/>
	<path class="st0" d="M33.5,16.5V1H1v16.3C1,26,7.9,33.1,16.5,33.5C16.9,42.1,24,49,32.7,49c9,0,16.3-7.3,16.3-16.3V16.5H33.5z
		 M2.5,17.3V2.5H32v14.7C32,25.4,25.4,32,17.3,32C9.1,32,2.5,25.4,2.5,17.3z M47.5,32.7c0,8.1-6.6,14.7-14.7,14.7
		c-7.9,0-14.3-6.2-14.7-14c8.3-0.4,15-7.1,15.4-15.4h14V32.7z"/>
	<path class="st0" d="M32.7,32c-4.7,0-8.5,3.8-8.5,8.5h1.5c0-3.8,3.1-7,7-7c3.8,0,7,3.1,7,7h1.5C41.3,35.8,37.4,32,32.7,32z"/>
	<rect x="38.9" y="23.5" class="st0" width="3.1" height="3.1"/>
</g>
</svg>
