<?xml version="1.0" encoding="utf-8"?>
<!-- Generator: Adobe Illustrator 19.1.1, SVG Export Plug-In . SVG Version: 6.00 Build 0)  -->
<svg version="1.1" id="Layer_1" xmlns="http://www.w3.org/2000/svg" xmlns:xlink="http://www.w3.org/1999/xlink" x="0px" y="0px"
	 width="50px" height="50px" viewBox="0 0 50 50" style="enable-background:new 0 0 50 50;" xml:space="preserve">
<style type="text/css">
	.st0{fill:#231F20;}
</style>
<g>
	<path class="st0" d="M48.9,25.3c0.1-0.2,0.1-0.5,0-0.7C44,14.8,34.8,8.7,25,8.7c-9.8,0-19,6.1-23.9,15.9C1,24.8,1,24.9,1,25
		c0,0.1,0,0.2,0.1,0.3C6,35.2,15.2,41.3,25,41.3C34.8,41.3,44,35.2,48.9,25.3z M47.4,25c-2.4,4.7-5.9,8.5-10,11V14
		C41.4,16.5,44.9,20.3,47.4,25z M35.8,13.1v23.9c-3.4,1.8-7,2.8-10.8,2.8c-3.8,0-7.5-1-10.8-2.8V13.1c3.4-1.8,7-2.8,10.8-2.8
		C28.8,10.3,32.5,11.3,35.8,13.1z M2.6,25c2.4-4.7,5.9-8.5,10-11V36C8.6,33.5,5.1,29.7,2.6,25z"/>
	<polygon class="st0" points="18,21.1 16.5,21.1 16.5,28.9 18,28.9 18,25.8 20.4,25.8 20.4,28.9 21.9,28.9 21.9,25.8 24.2,25.8 
		24.2,28.9 25.8,28.9 25.8,25.8 28.1,25.8 28.1,28.9 29.6,28.9 29.6,25.8 32,25.8 32,28.9 33.5,28.9 33.5,21.1 32,21.1 32,24.2 
		29.6,24.2 29.6,21.1 28.1,21.1 28.1,24.2 25.8,24.2 25.8,21.1 24.2,21.1 24.2,24.2 21.9,24.2 21.9,21.1 20.4,21.1 20.4,24.2 
		18,24.2 	"/>
</g>
</svg>
