<?xml version="1.0" encoding="utf-8"?>
<!-- Generator: Adobe Illustrator 19.1.1, SVG Export Plug-In . SVG Version: 6.00 Build 0)  -->
<svg version="1.1" id="Layer_1" xmlns="http://www.w3.org/2000/svg" xmlns:xlink="http://www.w3.org/1999/xlink" x="0px" y="0px"
	 width="50px" height="50px" viewBox="0 0 50 50" style="enable-background:new 0 0 50 50;" xml:space="preserve">
<path d="M7.2,47.5l12.7-12c2.9,1.8,6.4,2.8,10.1,2.8c10.4,0,18.9-8,18.9-17.9c0-9.9-8.5-17.9-18.9-17.9s-18.9,8-18.9,17.9
	c0,3.3,1,6.5,2.7,9.2L1,41.6L7.2,47.5z M30.1,9.1c6.5,0,11.9,5,11.9,11.2c0,6.2-5.3,11.2-11.9,11.2c-6.5,0-11.9-5-11.9-11.2
	C18.2,14.2,23.5,9.1,30.1,9.1z"/>
</svg>
