<?xml version="1.0" encoding="utf-8"?>
<!-- Generator: Adobe Illustrator 19.1.1, SVG Export Plug-In . SVG Version: 6.00 Build 0)  -->
<svg version="1.1" id="Layer_1" xmlns="http://www.w3.org/2000/svg" xmlns:xlink="http://www.w3.org/1999/xlink" x="0px" y="0px"
	 width="50px" height="50px" viewBox="0 0 50 50" style="enable-background:new 0 0 50 50;" xml:space="preserve">
<path d="M36.8,15.2c-1.8,0-3.4,0.5-4.8,1.3c-0.9,0.5-2.1,0.5-3-0.1L18.7,9.9c-0.8-0.5-1.3-1.4-1.3-2.3c-0.2-3.6-3.2-6.6-7-6.6
	c-3.9,0-7,3.1-7,7c0,4.9,5,8.3,9.6,6.5c0.9-0.3,1.9-0.2,2.6,0.3l8.8,5.6c1.6,1,2.6,2.8,2.6,4.7c0,0,0,0,0,0c0,1.8-0.9,3.5-2.5,4.5
	l-8.9,5.7c-0.8,0.5-1.8,0.6-2.6,0.3c-4.6-1.8-9.6,1.6-9.6,6.5c0,3.9,3.1,7,7,7c3.8,0,6.8-2.9,7-6.6c0.1-0.9,0.6-1.8,1.3-2.3
	l10.2-6.5c0.9-0.6,2.1-0.6,3-0.1c1.4,0.8,3.1,1.3,4.8,1.3c5.4,0,9.8-4.4,9.8-9.8C46.6,19.6,42.2,15.2,36.8,15.2z"/>
</svg>
