<svg id="Layer_1" data-name="Layer 1" xmlns="http://www.w3.org/2000/svg" width="385.21" height="342.63" viewBox="0 0 385.21 342.63">
  <title>hero-logo</title>
  <g>
    <path d="M134.77,259.88a1.79,1.79,0,0,0-2.45.45,1.75,1.75,0,1,0,2.86,2A1.78,1.78,0,0,0,134.77,259.88Zm-6-4.45a1.7,1.7,0,1,0,.24,2.38A1.69,1.69,0,0,0,128.76,255.43Zm-5.58-4.79a1.66,1.66,0,0,0-2.31.1,1.62,1.62,0,1,0,2.36,2.21A1.65,1.65,0,0,0,123.18,250.64Zm149.47-5.06a1.57,1.57,0,1,1,.09,2.21A1.57,1.57,0,0,1,272.65,245.58Zm4.72-5.31a1.52,1.52,0,0,1,2.12-.18,1.48,1.48,0,1,1-1.88,2.3A1.53,1.53,0,0,1,277.37,240.27Zm-73.56,37.9a2.22,2.22,0,0,1,2.38,2,2.21,2.21,0,1,1-4.4.36A2.21,2.21,0,0,1,203.81,278.17Zm8.3-.93a2.16,2.16,0,0,1,2.46,1.77,2.14,2.14,0,1,1-4.23.67A2.16,2.16,0,0,1,212.11,277.24Zm8.08-1.55a2.08,2.08,0,0,1,2.51,1.53,2.08,2.08,0,1,1-4,1A2.09,2.09,0,0,1,220.19,275.69Zm7.82-2.15a2,2,0,1,1-1.29,2.53A2,2,0,0,1,228,273.54Zm7.5-2.7a2,2,0,0,1,2.54,1.07,1.95,1.95,0,1,1-3.6,1.49A2,2,0,0,1,235.51,270.84Zm7.17-3.2a1.89,1.89,0,0,1,2.53.84,1.88,1.88,0,1,1-3.36,1.68A1.9,1.9,0,0,1,242.68,267.63Zm6.81-3.67a1.83,1.83,0,1,1-.62,2.49A1.83,1.83,0,0,1,249.49,264Zm6.41-4.09a1.79,1.79,0,0,1,2.45.45,1.75,1.75,0,1,1-2.86,2A1.78,1.78,0,0,1,255.89,259.88Zm6-4.45a1.7,1.7,0,1,1-.24,2.38A1.7,1.7,0,0,1,261.91,255.43Zm5.58-4.79a1.65,1.65,0,0,1,2.3.1,1.61,1.61,0,1,1-2.36,2.21A1.65,1.65,0,0,1,267.49,250.64ZM118,245.58a1.57,1.57,0,1,0-.09,2.21A1.57,1.57,0,0,0,118,245.58Zm-4.72-5.31a1.53,1.53,0,0,0-2.12-.18,1.48,1.48,0,1,0,1.88,2.3A1.53,1.53,0,0,0,113.3,240.27Zm82,38.18a2.28,2.28,0,1,0,2.28,2.25A2.26,2.26,0,0,0,195.33,278.45Zm-8.48-.28a2.22,2.22,0,0,0-2.38,2,2.21,2.21,0,1,0,4.4.36A2.21,2.21,0,0,0,186.86,278.17Zm-8.3-.93A2.16,2.16,0,0,0,176.1,279a2.14,2.14,0,1,0,4.23.67A2.16,2.16,0,0,0,178.56,277.24Zm-8.08-1.55a2.08,2.08,0,0,0-2.51,1.52,2.08,2.08,0,1,0,4,1A2.09,2.09,0,0,0,170.48,275.69Zm-7.82-2.15a2,2,0,1,0,1.29,2.53A2,2,0,0,0,162.66,273.54Zm-7.5-2.7a2,2,0,0,0-2.54,1.07,1.95,1.95,0,1,0,3.6,1.49A2,2,0,0,0,155.16,270.83Zm-7.17-3.2a1.89,1.89,0,0,0-2.53.84,1.88,1.88,0,1,0,3.36,1.68A1.9,1.9,0,0,0,148,267.63Zm-9.29-3a1.81,1.81,0,1,0,2.49-.63A1.81,1.81,0,0,0,138.69,264.59Z" transform="translate(-3 -2)" style="fill: #b18433;fill-rule: evenodd"/>
    <path d="M132.75,83.87a1.74,1.74,0,0,0-.41,2.47,1.75,1.75,0,0,0,2.86-2A1.74,1.74,0,0,0,132.75,83.87Zm-6.13,4.7a1.7,1.7,0,1,0,2.4.29A1.69,1.69,0,0,0,126.61,88.57Zm-5.67,5a1.61,1.61,0,0,0,0,2.32,1.61,1.61,0,1,0,2.36-2.21A1.61,1.61,0,0,0,120.94,93.6Zm154,5.3a1.57,1.57,0,1,1-2.23,0A1.57,1.57,0,0,1,274.95,98.91Zm4.76,5.55a1.49,1.49,0,0,1-.25,2.12,1.48,1.48,0,0,1-1.88-2.3A1.49,1.49,0,0,1,279.71,104.46Zm-75.55-40.4a2.17,2.17,0,0,1,2,2.41,2.21,2.21,0,0,1-4.4-.36A2.17,2.17,0,0,1,204.16,64.05Zm8.63,1.1a2.1,2.1,0,0,1,1.77,2.48,2.14,2.14,0,0,1-4.23-.68A2.1,2.1,0,0,1,212.79,65.15Zm8.38,1.74a2.06,2.06,0,0,1,1.53,2.54,2.08,2.08,0,0,1-4-1A2.05,2.05,0,0,1,221.17,66.9Zm8.09,2.36a2,2,0,1,1-2.55,1.33A2,2,0,0,1,229.26,69.25ZM237,72.18a1.92,1.92,0,0,1,1,2.57,1.94,1.94,0,0,1-3.59-1.49A1.91,1.91,0,0,1,237,72.18Zm7.38,3.44a1.86,1.86,0,0,1,.82,2.55,1.88,1.88,0,0,1-3.36-1.68A1.86,1.86,0,0,1,244.38,75.63Zm7,3.91a1.83,1.83,0,1,1-2.51.67A1.82,1.82,0,0,1,251.36,79.53Zm6.56,4.34a1.74,1.74,0,0,1,.41,2.47,1.75,1.75,0,0,1-2.86-2A1.74,1.74,0,0,1,257.92,83.87Zm6.13,4.7a1.7,1.7,0,1,1-2.4.29A1.7,1.7,0,0,1,264,88.57Zm5.67,5a1.61,1.61,0,0,1,0,2.32,1.61,1.61,0,0,1-2.36-2.21A1.62,1.62,0,0,1,269.72,93.6Zm-154,5.31a1.57,1.57,0,0,0,.12,2.23,1.55,1.55,0,1,0-.12-2.23ZM111,104.46a1.49,1.49,0,0,0,.25,2.12,1.48,1.48,0,1,0,1.88-2.3A1.49,1.49,0,0,0,111,104.46Zm84.37-40.83a2.28,2.28,0,1,0,2.28,2.31A2.25,2.25,0,0,0,195.33,63.63Zm-8.82.42a2.17,2.17,0,0,0-2,2.41,2.21,2.21,0,0,0,4.4-.36A2.17,2.17,0,0,0,186.5,64.05Zm-8.63,1.1a2.1,2.1,0,0,0-1.78,2.48,2.14,2.14,0,0,0,4.23-.68A2.1,2.1,0,0,0,177.88,65.15Zm-8.38,1.74A2.06,2.06,0,0,0,168,69.44a2.08,2.08,0,0,0,4-1A2.06,2.06,0,0,0,169.49,66.9Zm-8.08,2.36A2,2,0,1,0,164,70.58,2,2,0,0,0,161.41,69.25Zm-7.75,2.93a1.92,1.92,0,0,0-1,2.57,1.95,1.95,0,0,0,3.6-1.49A1.92,1.92,0,0,0,153.66,72.18Zm-7.38,3.44a1.87,1.87,0,0,0-.82,2.55,1.88,1.88,0,0,0,3.36-1.68A1.87,1.87,0,0,0,146.28,75.63Zm-7.58,6.44a1.81,1.81,0,1,0,.6-2.53A1.82,1.82,0,0,0,138.7,82.06Z" transform="translate(-3 -2)" style="fill: #b18433;fill-rule: evenodd"/>
    <path d="M84.16,283.48v0L80.89,280h0L75,285.51a1.08,1.08,0,0,1-1.46-1.59l5.91-5.37,0,0L76.35,275l0,0L65.9,283.89a1.12,1.12,0,0,1-1.44-1.71L75,273.4h0q-1.53-1.83-3-3.7h0l-6.29,4.93a1.08,1.08,0,0,1-1.32-1.71l6.36-4.84h0L68,264.24h0l-9,6.43a1.1,1.1,0,0,1-1.27-1.8l9.07-6.31h0l-2.66-3.95h0L57.4,263a1.06,1.06,0,0,1-1.49-.33,1.08,1.08,0,0,1,.32-1.5L63,256.88h0q-1.34-2.11-2.61-4.27a1,1,0,0,1,.4-1.42,1.05,1.05,0,0,1,1.44.34,154.36,154.36,0,0,0,266.19,0,1.06,1.06,0,0,1,1.45-.34,1,1,0,0,1,.4,1.42q-1.27,2.16-2.61,4.28h0l6.75,4.27a1.08,1.08,0,0,1,.32,1.5,1.07,1.07,0,0,1-1.49.33l-6.7-4.36h0l-2.65,3.94h0l9.07,6.31a1.1,1.1,0,0,1-1.27,1.8l-9-6.43h0l-2.82,3.82,0,0,6.36,4.84a1.08,1.08,0,0,1-1.32,1.71l-6.29-4.92h0q-1.46,1.87-3,3.7h0l10.54,8.78a1.12,1.12,0,0,1-1.44,1.71L314.33,275h0l-3.14,3.56,0,0,5.91,5.37a1.08,1.08,0,0,1-1.46,1.6l-5.84-5.45h0l-3.29,3.42,0,0,7.85,7.78a1.1,1.1,0,0,1-1.56,1.55L305,284.94h0l-3.44,3.28v0l5.43,5.86a1.08,1.08,0,0,1-1.6,1.46l-5.35-5.94v0c-1.18,1.07-2.37,2.11-3.58,3.13l0,0,8.87,10.46a1.12,1.12,0,0,1-1.72,1.44l-8.74-10.58v0l-3.71,3,0,0,4.9,6.31a1.08,1.08,0,0,1-1.72,1.32l-4.82-6.37v0l-3.84,2.81v0l6.39,9a1.08,1.08,0,0,1-.28,1.51,1.09,1.09,0,0,1-1.52-.25l-6.27-9.1v0c-1.3.9-2.62,1.78-4,2.63v0l4.33,6.71a1.08,1.08,0,0,1-1.83,1.16L278.36,306v0l-4.07,2.47v0l6.93,11.84a1.12,1.12,0,0,1-1.94,1.12l-6.78-11.93v0l-4.17,2.28v0l3.74,7.07a1.08,1.08,0,0,1-1.93,1l-3.64-7.11v0c-1.41.72-2.83,1.42-4.26,2.1v0l4.73,10a1.1,1.1,0,0,1-2,.93l-4.6-10v0L256,317.61v0l3.1,7.36a1.08,1.08,0,0,1-2,.83l-3-7.4v0l-4.43,1.72v0L254.48,333a1.12,1.12,0,0,1-2.11.76l-4.6-12.92v0c-1.49.53-3,1-4.5,1.52v0l2.44,7.61a1.08,1.08,0,0,1-2.06.65L241.31,323v0l-4.56,1.33v0L239.66,335a1.1,1.1,0,0,1-2.13.57l-2.78-10.7v0l-4.62,1.12v0l1.77,7.79a1.07,1.07,0,0,1-.83,1.28,1.08,1.08,0,0,1-1.29-.82l-1.67-7.81v0c-1.55.34-3.1.64-4.66.92v0l2.45,13.5a1.12,1.12,0,0,1-2.21.39l-2.27-13.53v0l-4.7.72v0l1.08,7.92a1.08,1.08,0,0,1-2.15.27l-1-7.93v0c-1.57.19-3.15.37-4.72.51v0l1,11a1.1,1.1,0,0,1-2.2.19l-.88-11v0l-4.75.31v0l.4,8a1.08,1.08,0,0,1-2.16.09l-.29-8v0l-4.75.1v0l.09,13.72a1.12,1.12,0,0,1-2.24,0l.09-13.72v0l-4.76-.1v0l-.29,8a1.08,1.08,0,0,1-2.16-.09l.4-8v0l-4.75-.31v0l-.88,11a1.1,1.1,0,0,1-2.2-.19l1-11v0c-1.58-.14-3.15-.32-4.73-.51v0l-1,7.93a1.08,1.08,0,0,1-2.15-.27l1.08-7.92v0l-4.69-.72v0L167,341.2a1.12,1.12,0,0,1-2.21-.39l2.45-13.5v0q-2.34-.42-4.66-.92v0l-1.67,7.81a1.08,1.08,0,0,1-2.11-.46l1.77-7.79v0l-4.61-1.12v0l-2.78,10.7A1.1,1.1,0,0,1,151,335l2.92-10.66v0L149.36,323v0L147,330.61a1.08,1.08,0,0,1-2.07-.65l2.44-7.61v0c-1.51-.48-3-1-4.5-1.52v0l-4.6,12.92a1.12,1.12,0,0,1-2.11-.77L141,320.13v0l-4.42-1.72v0l-3,7.4a1.08,1.08,0,0,1-2-.83l3.1-7.36v0l-4.35-1.91v0l-4.6,10a1.1,1.1,0,0,1-2-.93l4.73-10v0c-1.43-.67-2.85-1.38-4.26-2.1v0l-3.64,7.11a1.08,1.08,0,0,1-1.46.45,1.07,1.07,0,0,1-.46-1.45l3.74-7.07v0l-4.17-2.28v0l-6.78,11.93a1.12,1.12,0,0,1-1.94-1.12l6.94-11.84v0L112.32,306v0l-4.24,6.77a1.08,1.08,0,0,1-1.83-1.16l4.33-6.71v0c-1.33-.85-2.65-1.73-4-2.63v0l-6.27,9.1a1.09,1.09,0,0,1-1.52.25,1.08,1.08,0,0,1-.29-1.51l6.39-9v0l-3.84-2.81v0l-4.82,6.37a1.08,1.08,0,0,1-1.72-1.32l4.9-6.31v0l-3.71-3v0L87,304.64a1.12,1.12,0,0,1-1.72-1.44l8.87-10.46,0,0q-1.81-1.53-3.58-3.13h0l-5.35,5.94a1.08,1.08,0,0,1-1.6-1.46l5.42-5.86,0,0-3.44-3.28,0,0-7.75,7.88a1.08,1.08,0,0,1-1.54,0,1.07,1.07,0,0,1,0-1.53Z" transform="translate(-3 -2)" style="fill: #b18433"/>
    <path d="M306.5,63.15v0l3.29,3.42h0l5.84-5.45a1.08,1.08,0,0,1,1.47,1.59l-5.91,5.37,0,0,3.14,3.56h0l10.43-8.92a1.12,1.12,0,0,1,1.44,1.71l-10.54,8.78h0q1.52,1.83,3,3.7h0L324.94,72a1.08,1.08,0,0,1,1.32,1.71l-6.36,4.84h0l2.82,3.82h0l9-6.43a1.1,1.1,0,0,1,1.27,1.8l-9.08,6.31h0L326.56,88h0l6.7-4.36a1.06,1.06,0,0,1,1.49.33,1.08,1.08,0,0,1-.32,1.5l-6.75,4.27h0Q329,91.88,330.27,94a1,1,0,0,1-.4,1.42,1.05,1.05,0,0,1-1.45-.34,154.35,154.35,0,0,0-266.19,0,1.05,1.05,0,0,1-1.44.34,1,1,0,0,1-.4-1.42q1.27-2.16,2.61-4.28h0l-6.75-4.27a1.08,1.08,0,0,1,1.17-1.83L64.09,88h0l2.65-3.94h0l-9.07-6.31A1.1,1.1,0,0,1,58.95,76l9,6.43h0l2.83-3.83,0,0L64.4,73.72A1.08,1.08,0,0,1,65.73,72L72,76.93l0,0c1-1.25,2-2.48,3-3.7h0L64.46,64.45a1.12,1.12,0,0,1,1.45-1.71l10.43,8.91,0,0,3.14-3.56,0,0-5.91-5.37A1.08,1.08,0,0,1,75,61.12l5.84,5.45,0,0,3.29-3.42,0,0-7.85-7.78a1.1,1.1,0,0,1,1.56-1.56l7.75,7.88v0l3.44-3.28v0l-5.43-5.86a1.08,1.08,0,0,1,1.6-1.46L90.59,57v0q1.76-1.6,3.58-3.13v0L85.29,43.43A1.12,1.12,0,0,1,87,42l8.74,10.58v0l3.71-3v0l-4.9-6.31A1.08,1.08,0,0,1,96.27,42l4.82,6.38v0l3.84-2.81v0l-6.39-9a1.1,1.1,0,0,1,1.8-1.26l6.27,9.1v0q2-1.35,4-2.64v0L106.23,35a1.08,1.08,0,0,1,1.83-1.16l4.24,6.76v0l4.07-2.47v0l-6.93-11.84a1.12,1.12,0,0,1,1.94-1.12l6.78,11.93v0l4.17-2.28v0l-3.73-7.06a1.08,1.08,0,0,1,1.92-1l3.64,7.11v0q2.11-1.09,4.26-2.1v0l-4.73-10a1.1,1.1,0,0,1,2-.93l4.6,10v0L134.63,29v0l-3.1-7.36a1.08,1.08,0,0,1,2-.83l3,7.4v0L141,26.52v0l-4.77-12.86a1.12,1.12,0,0,1,2.11-.76l4.6,12.93v0c1.49-.53,3-1,4.5-1.52v0l-2.45-7.61A1.08,1.08,0,0,1,147,16l2.35,7.64v0l4.56-1.33v0L151,11.67a1.1,1.1,0,0,1,2.13-.57l2.78,10.7v0l4.61-1.12v0l-1.77-7.79a1.08,1.08,0,0,1,2.12-.47l1.67,7.81v0c1.55-.34,3.1-.64,4.66-.92v0l-2.45-13.5A1.12,1.12,0,0,1,167,5.43L169.23,19v0l4.7-.72v0l-1.08-7.92a1.08,1.08,0,0,1,2.15-.28L176,18v0c1.57-.19,3.15-.37,4.72-.51v0l-1-11a1.1,1.1,0,0,1,2.2-.19l.87,11v0l4.74-.31v0l-.4-8a1.08,1.08,0,0,1,2.16-.09l.29,8v0l4.75-.1v0l-.09-13.72a1.12,1.12,0,0,1,2.24,0l-.09,13.72v0l4.76.1v0l.29-8a1.08,1.08,0,0,1,2.16.09l-.39,8v0l4.75.31v0l.88-11a1.1,1.1,0,0,1,2.2.19l-1,11v0c1.58.14,3.15.32,4.72.51v0l1-7.93a1.08,1.08,0,0,1,2.15.28l-1.08,7.91v0l4.7.72v0l2.27-13.53a1.12,1.12,0,0,1,2.21.39l-2.45,13.5v0c1.56.28,3.11.58,4.66.92v0l1.67-7.82a1.08,1.08,0,0,1,2.11.47l-1.77,7.79v0l4.62,1.12v0l2.78-10.7a1.1,1.1,0,0,1,2.13.57l-2.92,10.66v0l4.56,1.33v0L243.65,16a1.08,1.08,0,0,1,2.06.65l-2.44,7.61v0c1.51.48,3,1,4.5,1.53v0l4.6-12.93a1.12,1.12,0,0,1,2.11.76L249.71,26.5v0l4.43,1.72v0l3-7.4a1.08,1.08,0,0,1,2,.83L256,29v0l4.35,1.91v0l4.6-10a1.1,1.1,0,0,1,2,.93l-4.73,10v0c1.43.67,2.85,1.38,4.26,2.1v0l3.64-7.11a1.08,1.08,0,0,1,1.93,1l-3.74,7.06v0l4.17,2.28v0l6.78-11.93a1.12,1.12,0,0,1,1.94,1.12L274.3,38.15v0l4.06,2.47v0l4.25-6.77A1.08,1.08,0,0,1,284.43,35l-4.33,6.71v0q2,1.28,4,2.64v0l6.27-9.1a1.1,1.1,0,0,1,1.81,1.26l-6.39,9v0l3.83,2.81v0L294.39,42a1.08,1.08,0,0,1,1.72,1.32l-4.9,6.31v0l3.71,3,0,0L303.66,42a1.12,1.12,0,0,1,1.72,1.45L296.51,53.9l0,0c1.21,1,2.4,2.06,3.58,3.13l0,0,5.35-5.94a1.08,1.08,0,0,1,1.6,1.46l-5.43,5.86v0L305,61.71l0,0,7.75-7.88a1.1,1.1,0,0,1,1.56,1.55Z" transform="translate(-3 -2)" style="fill: #b18433"/>
    <circle cx="6.13" cy="171.32" r="6.13" style="fill: #b18433"/>
    <path d="M195.33,84.66a88.66,88.66,0,1,0,62.69,26,88.39,88.39,0,0,0-62.69-26Zm-65.74,22.93a93,93,0,1,1-27.23,65.73A92.7,92.7,0,0,1,129.59,107.58Z" transform="translate(-3 -2)" style="fill: #b18433"/>
    <circle cx="379.08" cy="171.32" r="6.13" style="fill: #b18433"/>
    <path d="M195.33,90.84a82.48,82.48,0,1,0,82.48,82.48A82.57,82.57,0,0,0,195.33,90.84Z" transform="translate(-3 -2)" style="fill: none;stroke: #fff;stroke-miterlimit: 10;fill-rule: evenodd"/>
    <path d="M61.45,140.58c6.86,0,10.89,2.88,15.42,2.88,2.14,0,2.92-1.47,3.82-2.7L82,166.31H81.8c-1-10.62-6.95-25.41-19.77-25.41-13.57,0-15.46,19.09-15.46,32.37S48.46,205.63,62,205.63c12.83,0,18.79-14.79,19.77-25.41H82l-1.32,25.55c-.9-1.24-1.68-2.7-3.78-2.7-4.56,0-8.55,2.88-15.46,2.88-17.68,0-33-13.46-33-32.69S43.77,140.58,61.45,140.58Z" transform="translate(-3 -2)" style="fill: #fff"/>
    <path d="M328.19,172.49c20.55-11.4,27.21,6.78,31.9,17.72,5.34,12.59,5.67,15.15,11.43,14.88v.23c-15.83,1.1-24.09,4.12-30.17-13.64-2-5.72-6.33-22.62-13.65-18.54v15.7c0,10.9.08,16.25,7.32,16.25v.23H301.88v-.23c8.88,0,8.88-5.54,8.88-16.25V157.7c0-11.08,0-16.25-8.88-16.25v-.23H335v.23c-7.23,0-7.32,5.36-7.32,16.25v15l10.36-13c7.32-9.16,13.65-18.27,3.62-18.27v-.23h24.09v.23c-10.52,0-19.65,8.79-27.54,18.59Z" transform="translate(-3 -2)" style="fill: #fff"/>
    <g>
      <path d="M134.59,63.59A3.15,3.15,0,0,0,132.22,62a11.14,11.14,0,0,0-4.38.9A25.58,25.58,0,0,1,123,64.28a7.82,7.82,0,0,1-3.28-.13,4.93,4.93,0,0,1-2.43-1.61,5.17,5.17,0,0,1-1-5,10.32,10.32,0,0,1,4.14-5.39,11.51,11.51,0,0,1,4.56-2.07,7,7,0,0,1,4.1.33A5.88,5.88,0,0,1,132,52.8c-1.27.78-1.9,1.18-3.16,2a4,4,0,0,0-2.94-2,6.94,6.94,0,0,0-6.26,4.29,3.2,3.2,0,0,0,.67,3,3,3,0,0,0,2.56,1.08,14.4,14.4,0,0,0,4.34-1A13.24,13.24,0,0,1,133.72,59a5.42,5.42,0,0,1,3.75,2.71,5.63,5.63,0,0,1,.61,4.89,9.15,9.15,0,0,1-3.63,4.5,11,11,0,0,1-3.85,1.81,7.94,7.94,0,0,1-3.93,0,6.19,6.19,0,0,1-3.22-2c1.07-.91,1.61-1.36,2.7-2.23a4.17,4.17,0,0,0,3.15,1.72,5.86,5.86,0,0,0,3.7-1.3,5.06,5.06,0,0,0,2.14-2.68A3.42,3.42,0,0,0,134.59,63.59Z" transform="translate(-3 -2)" style="fill: #fff"/>
      <path d="M152.74,48.84a92.16,92.16,0,0,0-8.95,3.94l3.6,7.28a85.44,85.44,0,0,1,9.69-4.19l.86,2.32a83.4,83.4,0,0,0-12.27,5.53l-10.8-20.22a102.41,102.41,0,0,1,14.87-6.72l.87,2.31A100.33,100.33,0,0,0,139.43,44l3.27,6.62a94.21,94.21,0,0,1,9.15-4Z" transform="translate(-3 -2)" style="fill: #fff"/>
      <path d="M173.45,47.7c-3.47.65-5.19,1-8.61,2-.15,2.53-.2,3.79-.26,6.31-1.23.36-1.84.55-3.06,1a139.74,139.74,0,0,1,2.22-24.46c1.27-.31,1.91-.46,3.18-.73a137.78,137.78,0,0,1,12.68,21c-1.26.17-1.89.26-3.14.47C175.3,51,174.7,49.9,173.45,47.7ZM165,47.06c2.83-.75,4.25-1.08,7.11-1.63-2.23-3.81-3.42-5.69-5.91-9.39C165.61,40.45,165.37,42.66,165,47.06Z" transform="translate(-3 -2)" style="fill: #fff"/>
      <path d="M196.32,41.81c-3.65-.11-5.48-.09-9.13.11L187.73,52c-1.23.07-1.85.11-3.08.21l-1.92-22.84a103.34,103.34,0,0,1,15.68-.31l-.11,2.47a101.26,101.26,0,0,0-11.66.06l.42,7.84c3.73-.2,5.6-.22,9.33-.11Z" transform="translate(-3 -2)" style="fill: #fff"/>
      <path d="M221.11,46.06a11,11,0,0,1-4,6.45,9.44,9.44,0,0,1-12.2-2.09,10.61,10.61,0,0,1-1.68-7.18l.4-4.29c.29-3.05,1.34-5.37,3.28-6.9s4.55-2.07,7.71-1.51,5.42,1.92,6.73,3.95,1.54,4.55.79,7.54Zm-2.39-4.72c.55-2.36.47-4.23-.27-5.6a6.63,6.63,0,0,0-9.1-1.59,7.8,7.8,0,0,0-2.21,5l-.51,4.08a9.07,9.07,0,0,0,.69,5.49,5.67,5.67,0,0,0,7.93,1.55,8.94,8.94,0,0,0,2.5-4.78Z" transform="translate(-3 -2)" style="fill: #fff"/>
      <path d="M244.32,55.1A10.88,10.88,0,0,1,239,60.46a9.7,9.7,0,0,1-11.58-4.85,10.54,10.54,0,0,1-.06-7.38l1.35-4.1c1-2.91,2.51-4.94,4.76-6s4.94-1,7.94.29,4.93,3.13,5.79,5.41.52,4.81-.88,7.55ZM243,49.92c1.06-2.18,1.4-4,1-5.53a5.75,5.75,0,0,0-3.62-3.56,5.66,5.66,0,0,0-5-.08,7.74,7.74,0,0,0-3.3,4.42L230.63,49a9,9,0,0,0-.54,5.51,5.82,5.82,0,0,0,7.49,3.33,8.83,8.83,0,0,0,3.53-4.09Z" transform="translate(-3 -2)" style="fill: #fff"/>
      <path d="M245.74,66.77l12-19.52c2.53,1.56,3.78,2.38,6.24,4.11,3,2.12,4.78,4.58,5.3,7.15A8.4,8.4,0,0,1,267,65.82l-2.49,2.92A9.53,9.53,0,0,1,258,72.41c-2.39.19-4.82-.67-7.44-2.5C248.63,68.6,247.67,68,245.74,66.77Zm14-15.34-9.9,15c.88.58,1.32.88,2.19,1.49,1.9,1.33,3.6,1.9,5.18,1.65a7.53,7.53,0,0,0,4.55-3l2.54-3.17c1.51-1.89,2.14-3.65,1.85-5.31s-1.47-3.27-3.55-4.72C261.42,52.59,260.85,52.19,259.7,51.43Z" transform="translate(-3 -2)" style="fill: #fff"/>
    </g>
    <g>
      <path d="M130.1,295.14a7.17,7.17,0,0,1-5.28,3.35c-2.12.19-4.5-.59-7-2.43a9.72,9.72,0,0,1-4.32-6.63,9.09,9.09,0,0,1,2.5-7.17l2.7-3.16a10.28,10.28,0,0,1,6.45-3.82,9,9,0,0,1,6.72,1.88,8.54,8.54,0,0,1,3.66,4.89,8.38,8.38,0,0,1-1.07,6c-1.18-.72-1.76-1.09-2.93-1.85a6.6,6.6,0,0,0,1.05-4.1,4.77,4.77,0,0,0-2.17-3,5.26,5.26,0,0,0-4.44-1,8.57,8.57,0,0,0-4.52,3.28l-2.63,3.28a7.94,7.94,0,0,0-2.11,5.13,5.45,5.45,0,0,0,2.54,4.24,6.34,6.34,0,0,0,4.19,1.56c1.14-.13,2.32-1,3.55-2.46C128.21,294,128.84,294.37,130.1,295.14Z" transform="translate(-3 -2)" style="fill: #fff"/>
      <path d="M154,304.07c-1,3-2.61,5-4.82,5.94s-4.89.86-7.88-.46a9.87,9.87,0,0,1-5.63-5.41c-.85-2.28-.54-4.76.83-7.44l2-3.79a10.89,10.89,0,0,1,5.44-5.27,9.58,9.58,0,0,1,11.57,5,10.81,10.81,0,0,1-.19,7.5Zm-1.88-5a9.08,9.08,0,0,0,.68-5.54,5.79,5.79,0,0,0-7.52-3.29,8.77,8.77,0,0,0-3.63,4.1l-1.84,3.67a7.89,7.89,0,0,0-1,5.48,6.76,6.76,0,0,0,8.46,3.89c1.34-.69,2.44-2.13,3.31-4.3Z" transform="translate(-3 -2)" style="fill: #fff"/>
      <path d="M168.56,294.31A146,146,0,0,0,171.62,314a144.72,144.72,0,0,0,9.59-17.5c1.58.18,2.38.25,4,.37-.69,9.14-1,13.71-1.72,22.85-1.5-.11-2.25-.18-3.75-.34l.93-8.88c.5-3.54.75-5.32,1.23-8.86a140.86,140.86,0,0,1-9.58,16.74c-1.14-.19-1.71-.29-2.84-.5a142.84,142.84,0,0,1-3.3-18.93c-.75,3.47-1.12,5.21-1.85,8.69l-2.15,8.66c-1.47-.36-2.2-.56-3.66-1l6.18-22.07C166.22,293.74,167,293.94,168.56,294.31Z" transform="translate(-3 -2)" style="fill: #fff"/>
      <path d="M204.85,309.4c-3.71.37-5.57.48-9.29.56.09,4,.13,6.07.21,10.12-1.5,0-2.25,0-3.76,0,.08-9.17.11-13.75.19-22.91a88,88,0,0,0,12.76-.67l.28,2.46a90.08,90.08,0,0,1-9.9.67l.17,7.85c3.64-.08,5.46-.19,9.09-.55Z" transform="translate(-3 -2)" style="fill: #fff"/>
      <path d="M230.27,304.7c1,3,1,5.52-.2,7.65s-3.33,3.64-6.47,4.41a9.59,9.59,0,0,1-7.63-.88c-2-1.3-3.28-3.45-3.82-6.41l-.69-4.26a11,11,0,0,1,1-7.49,8.15,8.15,0,0,1,5.47-3.83,8.35,8.35,0,0,1,6.58.78,10.85,10.85,0,0,1,4.41,6.07Zm-4.5-2.8a9.13,9.13,0,0,0-2.82-4.81,4.92,4.92,0,0,0-4.37-.68,4.87,4.87,0,0,0-3.5,2.62,8.89,8.89,0,0,0-.35,5.46l.78,4a8,8,0,0,0,2.53,5,6.62,6.62,0,0,0,9-2c.64-1.36.63-3.17,0-5.42Z" transform="translate(-3 -2)" style="fill: #fff"/>
      <path d="M245.11,298.86c-1.79.87-2.7,1.29-4.52,2.09l3.71,8.5c-1.41.62-2.12.91-3.54,1.48l-8.53-21.27c2.59-1,3.88-1.6,6.41-2.82a8.76,8.76,0,0,1,5.82-1,6.73,6.73,0,0,1,4.25,3.51,6.09,6.09,0,0,1,.85,3.78,6.57,6.57,0,0,1-1.72,3.64,112.45,112.45,0,0,0,9.72,5.75l.1.16c-1.44.84-2.17,1.25-3.63,2C250.33,302.48,248.55,301.31,245.11,298.86Zm-5.51-.18c1.55-.67,2.31-1,3.84-1.76a4.83,4.83,0,0,0,2.6-2.6,3.93,3.93,0,0,0-.32-3.36c-1.38-2.6-3.39-3.16-6.08-1.87-1.4.67-2.1,1-3.52,1.61Z" transform="translate(-3 -2)" style="fill: #fff"/>
      <path d="M263,273.87c-2.14,1.83-3.23,2.7-5.45,4.36l12.24,16.37c-1.26.95-1.9,1.41-3.19,2.31l-11.73-16.74c-2.26,1.58-3.4,2.33-5.73,3.76l-1.29-2.11A88.07,88.07,0,0,0,261.39,272Z" transform="translate(-3 -2)" style="fill: #fff"/>
    </g>
    <path d="M258.48,203.65l.25.17c-10.55,14.34-21.43,21.27-31.32,21.27-10.72,0-21.35-6.18-30.41-15.41-14,11.21-26.62,15.41-37.5,15.41-21.6,0-31.82-12.36-31.82-27.2,0-23.9,22.09-37.75,42-40.72a72.53,72.53,0,0,1-1.65-15.33c0-22.09,18.3-34.45,39.07-34.45,13.52,0,19.62,5.19,19.62,12.61,0,12.69-17.64,23.74-27.36,27.78a153.46,153.46,0,0,0,12.45,25.72c1.4-19.95,12.36-40.06,31-40.06,12.94,0,22.5,9.64,22.5,23.41,0,13.93-9.89,27.86-25.22,27.86-12,0-19.45-8.57-19.45-17.64,0-5.28,2.64-13.19,12-15.66,2,4.45,5.28,6.92,10.14,6.92,7,0,11-5.11,11-11.21,0-5.61-3.3-12.78-12.53-12.78-13.76,0-27.45,16.24-28.85,40.06,10.05,16.32,24,31.4,39.32,31.4A11,11,0,0,0,258.48,203.65ZM158.17,181.72c0,20.94,17.31,38.74,38.58,27.69-12.86-13.35-23-33.46-27-51.93C161.22,162.11,158.17,173,158.17,181.72ZM206.39,108c-9,0-11.46,9.48-11.46,17,0,6,1.65,14.59,4.37,22.5a32.58,32.58,0,0,0,16.57-27.86C215.87,113.15,213.07,108,206.39,108Z" transform="translate(-3 -2)" style="fill: #fff"/>
  </g>
</svg>
