<svg id="Layer_1" data-name="Layer 1" xmlns="http://www.w3.org/2000/svg" width="250.31" height="66.02" viewBox="0 0 250.31 66.02">
  <title>logo</title>
  <path d="M41.05,8.3a85.17,85.17,0,0,0-3.42,12.28H36.46a25.35,25.35,0,0,0,.39-4.17A8.36,8.36,0,0,0,36,12.32a6.57,6.57,0,0,0-6.29-3.49q-4.28,0-8.14,3.76a27,27,0,0,0-6.2,9.77A33.83,33.83,0,0,0,13,34.69Q13,40,14.9,42.62a6.16,6.16,0,0,0,5.31,2.63,10.83,10.83,0,0,0,4.23-.93,11.16,11.16,0,0,0,3.78-2.6,15.69,15.69,0,0,0,2.44-3.33A53.63,53.63,0,0,0,33,33.29h1.17q-2.53,9.26-3.16,12.83H29.89A14.25,14.25,0,0,0,30,44.29q0-1.36-.68-1.36a2.13,2.13,0,0,0-1.1.47A21.78,21.78,0,0,1,23.37,46a16.19,16.19,0,0,1-5.56.9q-7.15,0-10.73-3.42T3.49,33.63A25.31,25.31,0,0,1,6.83,21.26,27.56,27.56,0,0,1,16,11.38,23.26,23.26,0,0,1,29,7.55,12,12,0,0,1,32.6,8a8.25,8.25,0,0,1,2.46,1.2A12.65,12.65,0,0,1,37,11a1.07,1.07,0,0,0,.78.47q1,0,2.17-3.18ZM42.6,34a27.18,27.18,0,0,1,3.09-12.23,28,28,0,0,1,8.62-10.22,20.65,20.65,0,0,1,12.49-4,18.42,18.42,0,0,1,7.8,1.51,11.1,11.1,0,0,1,5,4.41,13.31,13.31,0,0,1,1.73,7,27,27,0,0,1-3.1,12.19,28,28,0,0,1-8.66,10.21,20.72,20.72,0,0,1-12.49,4,18.34,18.34,0,0,1-7.77-1.51,11,11,0,0,1-5-4.39A13.26,13.26,0,0,1,42.6,34ZM66.31,8.51q-3.63,0-7,3.85a29.07,29.07,0,0,0-5.45,9.95,38.42,38.42,0,0,0-2.07,12.44,21.54,21.54,0,0,0,.73,5.95,9.08,9.08,0,0,0,2,3.87,4.07,4.07,0,0,0,3,1.34q3.65,0,7-3.85A29.36,29.36,0,0,0,70,32.11,38.2,38.2,0,0,0,72.1,19.67a21.19,21.19,0,0,0-.74-5.95,9.19,9.19,0,0,0-2-3.87,4.07,4.07,0,0,0-3-1.34ZM110.9,41.63a4.12,4.12,0,0,0,.89,2.56,2.5,2.5,0,0,0,1.72.86l-.21,1.07q-2.74-.16-7.75-.16-5.45,0-8,.16L97.75,45a10.18,10.18,0,0,0,2.69-.4,2.6,2.6,0,0,0,1.45-1.12,4.44,4.44,0,0,0,.48-2.28,6.69,6.69,0,0,0,0-.68l-.44-8.76H90.34l-4.72,6.68a7.49,7.49,0,0,0-1.7,3.94q0,2.43,4.46,2.63l-.26,1.07Q83.64,46,81.19,46q-2,0-3.68.16L77.72,45a6.53,6.53,0,0,0,2.69-1.59,27,27,0,0,0,3.34-4.07L106,8a12.75,12.75,0,0,0,1.41.08A10,10,0,0,0,108.76,8l2.14,33.59Zm-9.81-25.06-10,14.16h10.72Zm51.46-8.63a56,56,0,0,0-3.16,10.88h-1.07a14.39,14.39,0,0,0,.31-3,6.76,6.76,0,0,0-2-5.11A7.85,7.85,0,0,0,141,8.82a7.21,7.21,0,0,0-4.66,1.43,5.31,5.31,0,0,0-1.79,4.41q0,3.68,4.13,8.06T145,29.8a10,10,0,0,1,2.14,6.38,8.37,8.37,0,0,1-2.28,6,13.7,13.7,0,0,1-5.69,3.56,21.09,21.09,0,0,1-6.77,1.15,22.06,22.06,0,0,1-4-.31,12.58,12.58,0,0,1-2.75-.81,19.59,19.59,0,0,1-2.46-1.36,3.76,3.76,0,0,0-1.85-.78,1.29,1.29,0,0,0-.81.26,2.47,2.47,0,0,0-.64.85q-.3.59-.8,1.76h-1.07a79.65,79.65,0,0,0,3.63-12.81h1.07a14.71,14.71,0,0,0-.5,4.22,8,8,0,0,0,2.37,5.8q2.19,2,6.34,2,6.89,0,6.89-5.61,0-4.51-3.78-8.76t-5.69-6.77a10.18,10.18,0,0,1-1.9-6.32,9,9,0,0,1,2-5.85,12.06,12.06,0,0,1,5-3.63,16.58,16.58,0,0,1,6.2-1.21,15.13,15.13,0,0,1,4.75.65,18.82,18.82,0,0,1,3.7,1.7,4.48,4.48,0,0,0,1.75.86q.44,0,.83-.65a13.54,13.54,0,0,0,.94-2.16Zm22.17,1.83q-4-.39-6.39-.39-4.43,0-6.05.91a4.28,4.28,0,0,1,2.31,1.56,4.41,4.41,0,0,1,.9,2.76,4.82,4.82,0,0,1-.53,2.26,4.17,4.17,0,0,1-1.47,1.63,3.89,3.89,0,0,1-2.14.6,3.52,3.52,0,0,1-2.83-1.21,4.49,4.49,0,0,1-1-3,5.68,5.68,0,0,1,.82-2.89A6,6,0,0,1,161,9.68a16.67,16.67,0,0,1,7.17-1.28q2.27,0,4.49.16t6.74.59q4.53.43,7.24.43a18.28,18.28,0,0,0,5.66-.7A6.12,6.12,0,0,1,190.92,7a5.36,5.36,0,0,1-.52-2.36,4.42,4.42,0,0,1,1.15-3.17A4,4,0,0,1,194.6.3a4.42,4.42,0,0,1,2.2.52,3.73,3.73,0,0,1,1.42,1.37,3.58,3.58,0,0,1,.5,1.84q0,3.29-3.68,5.09a21.14,21.14,0,0,1-8.92,1.54q-1.36,0-3.13-.1l-7.83,29.37a10,10,0,0,0-.39,2.45,2.45,2.45,0,0,0,.43,1.53,2.51,2.51,0,0,0,1.38.82,12.48,12.48,0,0,0,2.6.34L179,46.12q-3.37-.16-9.86-.16t-9.42.16l.21-1.07a11.66,11.66,0,0,0,3.55-.55,4,4,0,0,0,2-1.51,10.28,10.28,0,0,0,1.27-3.08l8.06-30.15Zm40.53,31.87a4.12,4.12,0,0,0,.89,2.56,2.5,2.5,0,0,0,1.72.86l-.21,1.07q-2.74-.16-7.75-.16-5.45,0-8,.16l.21-1.07a10.18,10.18,0,0,0,2.69-.4,2.6,2.6,0,0,0,1.45-1.12,4.44,4.44,0,0,0,.48-2.28,6.69,6.69,0,0,0,0-.68l-.44-8.76H194.7L190,38.48a7.49,7.49,0,0,0-1.7,3.94q0,2.43,4.46,2.63l-.26,1.07Q188,46,185.55,46q-2,0-3.68.16l.21-1.07a6.53,6.53,0,0,0,2.69-1.59,27,27,0,0,0,3.34-4.07L210.38,8a12.75,12.75,0,0,0,1.41.08A10,10,0,0,0,213.12,8l2.14,33.59Zm-9.81-25.06-10,14.16h10.72ZM253.81,34.9a38.51,38.51,0,0,0-1.28,4.38,52.89,52.89,0,0,0-1.43,6.83Q247.44,46,239,46q-11.66,0-17.48.16l.26-1.07a10.26,10.26,0,0,0,2.87-.42,2.94,2.94,0,0,0,1.51-1.25,11.49,11.49,0,0,0,1.12-2.92l7-26.5a11.16,11.16,0,0,0,.44-2.58,1.81,1.81,0,0,0-.35-1.2,2,2,0,0,0-1.1-.59,12.28,12.28,0,0,0-2.13-.22l.26-1.07q2.82.16,8.82.16,5,0,8.32-.16l-.26,1.07a10.55,10.55,0,0,0-2.91.42A2.93,2.93,0,0,0,243.87,11,11.48,11.48,0,0,0,242.75,14l-7,26.5a12.15,12.15,0,0,0-.47,2.61,1.66,1.66,0,0,0,.35,1.15,1.91,1.91,0,0,0,1.1.53,11.75,11.75,0,0,0,2.1.14h2.14a10.41,10.41,0,0,0,6.7-2.32q2.9-2.32,5-7.67Z" transform="translate(-3.49 -0.3)" style="fill: none"/>
  <path d="M233.1,64.31a1.74,1.74,0,0,0,0,.78.61.61,0,0,0,.36.39,2.14,2.14,0,0,0,.79.11l-.07.38q-1.64-.07-2.15-.07T230,66l.07-.38a1.92,1.92,0,0,0,.72-.11,1,1,0,0,0,.44-.39,2.4,2.4,0,0,0,.25-.78l.92-5.22a5,5,0,0,0,.09-1.09,1.05,1.05,0,0,0-.3-.71,1.24,1.24,0,0,0-.89-.27,2.48,2.48,0,0,0-1.39.43,3.58,3.58,0,0,0-1.1,1.18,4.84,4.84,0,0,0-.61,1.67l-.71,4a2,2,0,0,0,0,.78.56.56,0,0,0,.3.39,1.65,1.65,0,0,0,.69.11l-.07.38q-1.5-.07-2-.07T224.2,66l.07-.38a2.5,2.5,0,0,0,.83-.11,1,1,0,0,0,.5-.39,2.1,2.1,0,0,0,.27-.78l1-5.65a1.76,1.76,0,0,0-.09-1.21,1.1,1.1,0,0,0-1-.38l.07-.38c.37,0,.74.05,1.11.05a6.33,6.33,0,0,0,1.92-.25l-.38,2.13A4.27,4.27,0,0,1,230,57a3.78,3.78,0,0,1,1.91-.52,2.14,2.14,0,0,1,1.79.68,1.8,1.8,0,0,1,.32.91,5.8,5.8,0,0,1-.11,1.46Zm-11.91-7.08a1,1,0,0,0-.9-.44,1.92,1.92,0,0,0-1.08.36,3.49,3.49,0,0,0-1,1.09,6.7,6.7,0,0,0-.73,1.83h3.93a5.92,5.92,0,0,0,.14-1.65A2.29,2.29,0,0,0,221.19,57.22Zm1.9,3.18h-5.63a9,9,0,0,0-.26,1.16,4.83,4.83,0,0,0,0,2.08A2.62,2.62,0,0,0,218,65a1.86,1.86,0,0,0,1.25.47,3.43,3.43,0,0,0,3-1.81l.34.14a4.66,4.66,0,0,1-2.19,2.08,3.84,3.84,0,0,1-1.61.34,3.6,3.6,0,0,1-2.12-.58A2.93,2.93,0,0,1,215.5,64a5.37,5.37,0,0,1-.06-2.44,7.74,7.74,0,0,1,1-2.72,5.2,5.2,0,0,1,1.74-1.78,4.32,4.32,0,0,1,2.26-.62,2.67,2.67,0,0,1,2.32,1A3.92,3.92,0,0,1,223.09,60.4Zm-11.32,3.9a1.79,1.79,0,0,0,0,.78.61.61,0,0,0,.36.39,2.14,2.14,0,0,0,.79.11l-.07.38q-1.68-.07-2.15-.07t-2,.07l.07-.38a2,2,0,0,0,.73-.11.94.94,0,0,0,.44-.39,2.4,2.4,0,0,0,.25-.78l.92-5.22a5,5,0,0,0,.09-1.09,1.07,1.07,0,0,0-.3-.71A1.22,1.22,0,0,0,210,57a2.5,2.5,0,0,0-1.38.42,3.53,3.53,0,0,0-1.1,1.16,4.78,4.78,0,0,0-.62,1.69l-.71,4a2,2,0,0,0,0,.78.56.56,0,0,0,.3.39,1.6,1.6,0,0,0,.68.11l-.07.38c-1,0-1.67-.07-2-.07s-1.07,0-2.18.07l.07-.38a2.5,2.5,0,0,0,.83-.11,1,1,0,0,0,.5-.39,2.11,2.11,0,0,0,.27-.78L206.35,54a1.78,1.78,0,0,0-.09-1.21,1.12,1.12,0,0,0-1-.37l.07-.38c.38,0,.74.05,1.11.05a6.14,6.14,0,0,0,1.92-.25l-1.19,6.74a4.23,4.23,0,0,1,1.55-1.65,3.82,3.82,0,0,1,1.9-.51,2.15,2.15,0,0,1,1.79.68,1.75,1.75,0,0,1,.33.91,5.81,5.81,0,0,1-.11,1.46Zm-9.44-5.9a1.22,1.22,0,0,1-.4.74,1.09,1.09,0,0,1-.73.27.91.91,0,0,1-.67-.24.71.71,0,0,1-.17-.67,1.18,1.18,0,0,1,.33-.65,1.32,1.32,0,0,1,.6-.35,1,1,0,0,0-.55-.54,2,2,0,0,0-.94-.22,2.43,2.43,0,0,0-1.32.42,3.87,3.87,0,0,0-1.21,1.41,8.26,8.26,0,0,0-.84,2.59,5.32,5.32,0,0,0,.15,3.26,1.8,1.8,0,0,0,1.7,1,3.07,3.07,0,0,0,1.54-.45,4.2,4.2,0,0,0,1.4-1.41l.32.12a5,5,0,0,1-.84,1.21,4.19,4.19,0,0,1-1.27.93,3.69,3.69,0,0,1-1.65.37,3.2,3.2,0,0,1-1.93-.58A3.08,3.08,0,0,1,194.73,64a5.39,5.39,0,0,1-.07-2.54,7,7,0,0,1,1-2.6,5.44,5.44,0,0,1,1.81-1.77,4.41,4.41,0,0,1,2.29-.64,3.28,3.28,0,0,1,2,.57A1.37,1.37,0,0,1,202.33,58.41Zm-8.67-1.7-.06.36h-2.67l-1.23,7a1.71,1.71,0,0,0,.08,1.18.88.88,0,0,0,.8.36,1.48,1.48,0,0,0,1-.45,4.66,4.66,0,0,0,.93-1.48l.34.09q-.88,2.49-2.78,2.49a2.71,2.71,0,0,1-1-.14,1.49,1.49,0,0,1-.62-.45,1.78,1.78,0,0,1-.38-1,6,6,0,0,1,.11-1.55l1.07-6h-1.74l.07-.36h1.73l.49-2.76a5.65,5.65,0,0,0,1.66-.25l-.53,3Zm-9.94,7.6a1.73,1.73,0,0,0,0,.78.61.61,0,0,0,.36.39,2.14,2.14,0,0,0,.78.11l-.07.38c-1.1,0-1.82-.07-2.17-.07s-1.09,0-2.2.07l.07-.38a2.49,2.49,0,0,0,.83-.11,1,1,0,0,0,.5-.39,2.1,2.1,0,0,0,.27-.78l1-5.65a1.79,1.79,0,0,0-.09-1.21,1.11,1.11,0,0,0-1-.38l.07-.38c.37,0,.74.05,1.11.05a6.33,6.33,0,0,0,1.92-.25Zm2.16-11a1.32,1.32,0,0,1-.26.58,1.49,1.49,0,0,1-.5.42,1.25,1.25,0,0,1-.6.15,1,1,0,0,1-.55-.15.85.85,0,0,1-.35-.42,1,1,0,0,1-.05-.58,1.29,1.29,0,0,1,.25-.57,1.51,1.51,0,0,1,.5-.42,1.3,1.3,0,0,1,.61-.16,1,1,0,0,1,.54.16.92.92,0,0,1,.35.42A1,1,0,0,1,185.88,53.33ZM179.94,57a3.16,3.16,0,0,0-1.77.85l-2.6,2.31L178,64.66a2.7,2.7,0,0,0,.49.68,1.11,1.11,0,0,0,.6.27l-.07.38q-1.08-.07-1.45-.07c-.32,0-1,0-2,.07l.07-.38a.82.82,0,0,0,.42-.1.35.35,0,0,0,.19-.24.42.42,0,0,0-.06-.27l-1.54-3a1.69,1.69,0,0,0-.49-.62,1.47,1.47,0,0,0-.72-.18l-.55,3.15a2,2,0,0,0,0,.78.56.56,0,0,0,.3.39,1.6,1.6,0,0,0,.68.11l-.07.38q-1.5-.07-2-.07t-2.2.07l.07-.38a2.52,2.52,0,0,0,.83-.11,1,1,0,0,0,.5-.39,2.16,2.16,0,0,0,.28-.78L173.12,54a1.75,1.75,0,0,0-.09-1.21,1.11,1.11,0,0,0-1-.38l.07-.38c.38,0,.75.05,1.11.05a6.13,6.13,0,0,0,1.92-.25l-1.58,9a3.28,3.28,0,0,0,.92-.24,3,3,0,0,0,.76-.51l1.58-1.38a2.08,2.08,0,0,0,.75-1,.41.41,0,0,0-.28-.47,2.42,2.42,0,0,0-.94-.15l.06-.36q1.24.07,2,.07c.56,0,1.09,0,1.58-.07Z" transform="translate(-3.49 -0.3)" style="fill: none"/>
  <g>
    <path d="M43.3,21.8H42.11a25.63,25.63,0,0,0,.4-4.22,8.45,8.45,0,0,0-.9-4.14,6.64,6.64,0,0,0-6.35-3.53q-4.32,0-8.23,3.8a27.34,27.34,0,0,0-6.26,9.87,34.21,34.21,0,0,0-2.36,12.48q0,5.35,1.91,8a6.22,6.22,0,0,0,5.37,2.66A11,11,0,0,0,30,45.81a11.29,11.29,0,0,0,3.82-2.62,15.88,15.88,0,0,0,2.47-3.36,54.14,54.14,0,0,0,2.41-5.18h1.19q-2.56,9.36-3.19,13H35.47a14.4,14.4,0,0,0,.16-1.85q0-1.37-.69-1.37a2.16,2.16,0,0,0-1.11.47,22,22,0,0,1-5,2.6,16.37,16.37,0,0,1-5.62.91q-7.22,0-10.85-3.45T8.79,35a25.58,25.58,0,0,1,3.37-12.5,27.86,27.86,0,0,1,9.31-10A23.5,23.5,0,0,1,34.6,8.62a12.08,12.08,0,0,1,3.61.47A8.35,8.35,0,0,1,40.7,10.3a12.77,12.77,0,0,1,1.94,1.82,1.08,1.08,0,0,0,.79.47q1,0,2.19-3.22h1.13A86,86,0,0,0,43.3,21.8Z" transform="translate(-3.49 -0.3)" style="fill: #fff"/>
    <path d="M49.27,23A28.28,28.28,0,0,1,58,12.7,20.87,20.87,0,0,1,70.62,8.62a18.62,18.62,0,0,1,7.88,1.53,11.22,11.22,0,0,1,5,4.46,13.45,13.45,0,0,1,1.75,7A27.26,27.26,0,0,1,82.17,34a28.34,28.34,0,0,1-8.75,10.32,20.94,20.94,0,0,1-12.63,4.09,18.54,18.54,0,0,1-7.86-1.53,11.15,11.15,0,0,1-5-4.44,13.41,13.41,0,0,1-1.74-7A27.48,27.48,0,0,1,49.27,23ZM63,13.48a29.38,29.38,0,0,0-5.51,10.06,38.85,38.85,0,0,0-2.1,12.58,21.79,21.79,0,0,0,.74,6A9.18,9.18,0,0,0,58.23,46a4.11,4.11,0,0,0,3,1.36q3.69,0,7.09-3.89a29.7,29.7,0,0,0,5.51-10.06A38.63,38.63,0,0,0,76,20.88a21.43,21.43,0,0,0-.75-6A9.3,9.3,0,0,0,73.15,11a4.11,4.11,0,0,0-3-1.36Q66.45,9.59,63,13.48Z" transform="translate(-3.49 -0.3)" style="fill: #fff"/>
    <path d="M113.94,45.66a2.53,2.53,0,0,0,1.74.87l-.21,1.08q-2.77-.16-7.83-.16-5.51,0-8.09.16l.21-1.08a10.3,10.3,0,0,0,2.72-.41A2.63,2.63,0,0,0,103.93,45a4.49,4.49,0,0,0,.49-2.31,6.82,6.82,0,0,0,0-.69l-.45-8.86H92.27l-4.77,6.75a7.58,7.58,0,0,0-1.71,4q0,2.45,4.51,2.66L90,47.61q-4.54-.16-7-.16-2,0-3.72.16l.21-1.08a6.59,6.59,0,0,0,2.72-1.61,27.28,27.28,0,0,0,3.38-4.11L108.11,9.12a12.88,12.88,0,0,0,1.42.08,10.07,10.07,0,0,0,1.34-.08l2.16,34A4.16,4.16,0,0,0,113.94,45.66ZM103.13,17.74,93,32.06h10.84Z" transform="translate(-3.49 -0.3)" style="fill: #fff"/>
    <path d="M149.8,20h-1.08a14.55,14.55,0,0,0,.32-3,6.83,6.83,0,0,0-2-5.17,7.93,7.93,0,0,0-5.72-1.92,7.29,7.29,0,0,0-4.71,1.45,5.37,5.37,0,0,0-1.81,4.46q0,3.72,4.18,8.15t6.34,7.16a10.07,10.07,0,0,1,2.16,6.45,8.47,8.47,0,0,1-2.31,6.05,13.85,13.85,0,0,1-5.75,3.6,21.31,21.31,0,0,1-6.84,1.16,22.29,22.29,0,0,1-4.09-.32,12.72,12.72,0,0,1-2.78-.82,19.69,19.69,0,0,1-2.49-1.37,3.8,3.8,0,0,0-1.87-.79,1.31,1.31,0,0,0-.82.26,2.5,2.5,0,0,0-.65.86q-.3.59-.8,1.78H118A80.53,80.53,0,0,0,121.66,35h1.08a14.88,14.88,0,0,0-.5,4.27,8.09,8.09,0,0,0,2.4,5.87q2.21,2,6.41,2,7,0,7-5.67,0-4.56-3.82-8.86t-5.75-6.84a10.3,10.3,0,0,1-1.92-6.39,9.1,9.1,0,0,1,2-5.92,12.18,12.18,0,0,1,5-3.67,16.75,16.75,0,0,1,6.26-1.23,15.3,15.3,0,0,1,4.8.66A19,19,0,0,1,148.35,11a4.53,4.53,0,0,0,1.77.87q.45,0,.84-.66A13.69,13.69,0,0,0,151.91,9H153A56.68,56.68,0,0,0,149.8,20Z" transform="translate(-3.49 -0.3)" style="fill: #fff"/>
    <path d="M166.78,10.46q-4.48,0-6.12.92A4.33,4.33,0,0,1,163,13a4.46,4.46,0,0,1,.91,2.79,4.89,4.89,0,0,1-.54,2.28,4.22,4.22,0,0,1-1.49,1.65,3.92,3.92,0,0,1-2.16.61,3.55,3.55,0,0,1-2.86-1.23,4.54,4.54,0,0,1-1-3,5.74,5.74,0,0,1,.83-2.93,6,6,0,0,1,2.68-2.32,16.85,16.85,0,0,1,7.25-1.29q2.29,0,4.54.16t6.82.59q4.57.44,7.32.44A18.47,18.47,0,0,0,191,10a6.2,6.2,0,0,1-1.34-1.86,5.42,5.42,0,0,1-.53-2.39,4.47,4.47,0,0,1,1.16-3.2,4,4,0,0,1,3.08-1.23,4.47,4.47,0,0,1,2.23.53A3.77,3.77,0,0,1,197,3.2a3.62,3.62,0,0,1,.5,1.86q0,3.32-3.72,5.14a21.36,21.36,0,0,1-9,1.56q-1.37,0-3.16-.11l-7.91,29.69a10.15,10.15,0,0,0-.4,2.48,2.47,2.47,0,0,0,.44,1.54,2.53,2.53,0,0,0,1.4.83,12.63,12.63,0,0,0,2.62.34l-.24,1.08q-3.4-.16-10-.16t-9.52.16l.21-1.08a11.78,11.78,0,0,0,3.59-.55,4.1,4.1,0,0,0,2-1.53,10.38,10.38,0,0,0,1.28-3.11l8.15-30.48Q169.15,10.46,166.78,10.46Z" transform="translate(-3.49 -0.3)" style="fill: #fff"/>
    <path d="M212.92,45.66a2.53,2.53,0,0,0,1.74.87l-.21,1.08q-2.77-.16-7.83-.16-5.51,0-8.09.16l.21-1.08a10.3,10.3,0,0,0,2.72-.41A2.63,2.63,0,0,0,202.92,45a4.5,4.5,0,0,0,.49-2.31,6.68,6.68,0,0,0,0-.69l-.45-8.86H191.25l-4.77,6.75a7.58,7.58,0,0,0-1.71,4q0,2.45,4.51,2.66L189,47.61q-4.54-.16-7-.16-2,0-3.72.16l.21-1.08a6.59,6.59,0,0,0,2.72-1.61,27.28,27.28,0,0,0,3.38-4.11L207.09,9.12a12.88,12.88,0,0,0,1.42.08,10.07,10.07,0,0,0,1.34-.08l2.16,34A4.16,4.16,0,0,0,212.92,45.66ZM202.11,17.74,192,32.06h10.84Z" transform="translate(-3.49 -0.3)" style="fill: #fff"/>
    <path d="M247.54,40.71a53.52,53.52,0,0,0-1.45,6.91q-3.69-.16-12.26-.16-11.79,0-17.67.16l.26-1.08a10.37,10.37,0,0,0,2.9-.42,3,3,0,0,0,1.53-1.27,11.6,11.6,0,0,0,1.13-3l7.12-26.79a11.28,11.28,0,0,0,.45-2.61,1.84,1.84,0,0,0-.36-1.21,2,2,0,0,0-1.11-.59,12.44,12.44,0,0,0-2.15-.22l.26-1.08q2.85.16,8.91.16,5.09,0,8.41-.16l-.26,1.08a10.66,10.66,0,0,0-2.94.42,3,3,0,0,0-1.54,1.27,11.62,11.62,0,0,0-1.13,3l-7.12,26.79a12.28,12.28,0,0,0-.47,2.64,1.68,1.68,0,0,0,.36,1.16,1.93,1.93,0,0,0,1.11.54,11.88,11.88,0,0,0,2.12.14h2.16A10.51,10.51,0,0,0,242.58,44q2.93-2.35,5.06-7.75h1.19A39,39,0,0,0,247.54,40.71Z" transform="translate(-3.49 -0.3)" style="fill: #fff"/>
  </g>
  <g>
    <path d="M179.82,59.88a6.16,6.16,0,0,0,1.06-1.69,3.76,3.76,0,0,1,1-1.45,1.83,1.83,0,0,1,1.11-.42,1.08,1.08,0,0,1,.86.3,1.05,1.05,0,0,1,.23.78,1.69,1.69,0,0,1-.31.81.87.87,0,0,1-.76.38.66.66,0,0,1-.54-.22.82.82,0,0,1-.18-.53,1.28,1.28,0,0,1,.17-.58,2,2,0,0,1,.42-.55h0a1.17,1.17,0,0,0-.68.25,3.92,3.92,0,0,0-.86,1.32,8.4,8.4,0,0,1-.93,1.6,2.35,2.35,0,0,1-1.41.8,4.16,4.16,0,0,1,1.92.5,1.48,1.48,0,0,1,.75,1.37,2.31,2.31,0,0,1-.05.49l-.37,1.85a2.18,2.18,0,0,0,0,.36q0,.4.41.4a.9.9,0,0,0,.69-.43,5.53,5.53,0,0,0,.68-1.46l.22-.69h.35l-.44,1.35q-.61,1.9-2.2,1.9A1.23,1.23,0,0,1,180,66a1.15,1.15,0,0,1-.33-.9,2.62,2.62,0,0,1,.06-.56l.33-1.59a3.32,3.32,0,0,0,.08-.68,1.31,1.31,0,0,0-.21-.77,1.42,1.42,0,0,0-.68-.48,5,5,0,0,0-1.28-.25l-1.54,5.27h-1.6l3.65-12.31a2,2,0,0,0,.09-.5.58.58,0,0,0-.3-.54,2.06,2.06,0,0,0-1-.17l.11-.39a7.37,7.37,0,0,0,3.33-.76L178,60.57A2.69,2.69,0,0,0,179.82,59.88Z" transform="translate(-3.49 -0.3)" style="fill: #fff"/>
    <path d="M187.55,57.46q0-.47-.4-.47a.94.94,0,0,0-.76.45,6,6,0,0,0-.7,1.44l-.26.68h-.34l.48-1.34a2.93,2.93,0,0,1,1-1.48,2.24,2.24,0,0,1,1.3-.42q1.23,0,1.23,1.15a4.61,4.61,0,0,1-.31,1.42l-2,5.6a2.06,2.06,0,0,0-.14.68c0,.31.15.47.44.47a.93.93,0,0,0,.71-.42,5.88,5.88,0,0,0,.73-1.46l.25-.69h.35l-.48,1.35a3,3,0,0,1-1,1.45,2.14,2.14,0,0,1-1.31.45q-1.29,0-1.29-1.13a4.51,4.51,0,0,1,.32-1.46l2-5.6A2.23,2.23,0,0,0,187.55,57.46Zm.6-4.7a1.58,1.58,0,0,1,.52-.53,1.24,1.24,0,0,1,.66-.2.89.89,0,0,1,.68.28,1,1,0,0,1,.26.69,1.29,1.29,0,0,1-.19.68,1.52,1.52,0,0,1-.52.52,1.28,1.28,0,0,1-.68.2.89.89,0,0,1-.67-.27.93.93,0,0,1-.26-.68A1.32,1.32,0,0,1,188.15,52.76Z" transform="translate(-3.49 -0.3)" style="fill: #fff"/>
    <path d="M192.23,64.9a.67.67,0,0,0,.22.55.89.89,0,0,0,.58.18,1.21,1.21,0,0,0,.86-.4,4,4,0,0,0,.78-1.45l.26-.72h.35l-.39,1.16a3.31,3.31,0,0,1-1,1.62,2.44,2.44,0,0,1-1.52.47,1.7,1.7,0,0,1-1.24-.41,1.51,1.51,0,0,1-.41-1.13,4,4,0,0,1,.17-1.05l2-6.79h-1.66l.09-.37H193l.8-2.8a5.28,5.28,0,0,0,1.66-.26l-.87,3.06H197l-.05.37h-2.49l-2.14,7.55A1.49,1.49,0,0,0,192.23,64.9Z" transform="translate(-3.49 -0.3)" style="fill: #fff"/>
    <path d="M201.79,65.05a5,5,0,0,1-1.29.92,3.29,3.29,0,0,1-1.46.35,2.33,2.33,0,0,1-1.79-.69,2.85,2.85,0,0,1-.65-2,8.55,8.55,0,0,1,.7-3.22,8,8,0,0,1,2-2.9,4.14,4.14,0,0,1,2.89-1.18,2.59,2.59,0,0,1,1,.19,1.71,1.71,0,0,1,.72.54,1.34,1.34,0,0,1,.27.83,1.61,1.61,0,0,1-.16.7,1.43,1.43,0,0,1-.46.56,1.16,1.16,0,0,1-.69.22.73.73,0,0,1-.56-.21.73.73,0,0,1-.19-.51,1.2,1.2,0,0,1,.41-.91,1.87,1.87,0,0,1,1-.48,1.42,1.42,0,0,0-1.25-.57,2.57,2.57,0,0,0-1.84,1,7.6,7.6,0,0,0-1.5,2.64,10.25,10.25,0,0,0-.58,3.45,2.16,2.16,0,0,0,.34,1.34,1.15,1.15,0,0,0,1,.44,3.49,3.49,0,0,0,2.77-1.85l.37.14A5.69,5.69,0,0,1,201.79,65.05Z" transform="translate(-3.49 -0.3)" style="fill: #fff"/>
    <path d="M212.75,64.42q-.65,1.9-2.24,1.9-1.3,0-1.3-1.14a4.72,4.72,0,0,1,.31-1.45l1.75-5.28a2.89,2.89,0,0,0,.2-.92q0-.63-.6-.63a2.13,2.13,0,0,0-1.46.85,10.8,10.8,0,0,0-1.57,2.4,26.64,26.64,0,0,0-1.47,3.59l-.68,2.32h-1.6l3.65-12.31a2,2,0,0,0,.09-.5.58.58,0,0,0-.3-.54,2.05,2.05,0,0,0-1-.17l.11-.39a7.37,7.37,0,0,0,3.33-.76l-2.68,9.15a14.43,14.43,0,0,1,1.35-2.45A4.8,4.8,0,0,1,210,56.73a2.79,2.79,0,0,1,1.47-.42q1.49,0,1.49,1.4a4.67,4.67,0,0,1-.27,1.39l-1.79,5.39a2.65,2.65,0,0,0-.13.7.39.39,0,0,0,.43.44,1,1,0,0,0,.71-.42,5.2,5.2,0,0,0,.71-1.46l.23-.69h.35Z" transform="translate(-3.49 -0.3)" style="fill: #fff"/>
    <path d="M219.55,65.05a5,5,0,0,1-1.29.92,3.29,3.29,0,0,1-1.46.35,2.36,2.36,0,0,1-1.79-.67,2.68,2.68,0,0,1-.64-1.93,7.62,7.62,0,0,1,.82-3.16,9.05,9.05,0,0,1,2.22-3,4.51,4.51,0,0,1,3-1.24,1.51,1.51,0,0,1,1,.32,1.1,1.1,0,0,1,.39.9,3.14,3.14,0,0,1-1.67,2.6A16.45,16.45,0,0,1,216.3,62a8.07,8.07,0,0,0-.21,1.78q0,1.78,1.27,1.78a3.53,3.53,0,0,0,2.85-1.85l.3.14A5.73,5.73,0,0,1,219.55,65.05Zm-.84-7.7a7.51,7.51,0,0,0-1.37,1.84,10.37,10.37,0,0,0-1,2.44,9.4,9.4,0,0,0,2.51-1.19A3.73,3.73,0,0,0,220,59.15a3.67,3.67,0,0,0,.38-1.65,1.94,1.94,0,0,0-.07-.66.24.24,0,0,0-.22-.17A2.06,2.06,0,0,0,218.71,57.36Z" transform="translate(-3.49 -0.3)" style="fill: #fff"/>
    <path d="M231.37,64.42q-.65,1.9-2.23,1.9a1.26,1.26,0,0,1-1.16-.54,1.14,1.14,0,0,1-.14-.6,4.8,4.8,0,0,1,.32-1.44l1.75-5.28a2.93,2.93,0,0,0,.19-.91q0-.64-.59-.64a2.38,2.38,0,0,0-1.6,1,12.78,12.78,0,0,0-1.75,2.83,26.37,26.37,0,0,0-1.5,4l-.32,1.29h-1.6l2.21-7.92a2.52,2.52,0,0,0,.14-.69q0-.45-.41-.45a.78.78,0,0,0-.5.18,1.9,1.9,0,0,0-.44.58,8.59,8.59,0,0,0-.48,1.13l-.24.68h-.35l.47-1.34q.65-1.9,2.19-1.9a1,1,0,0,1,1.09,1.09,6.67,6.67,0,0,1-.25,1.49l-.64,2.52a19.1,19.1,0,0,1,1.53-3,5.58,5.58,0,0,1,1.48-1.61,2.87,2.87,0,0,1,1.61-.5q1.49,0,1.49,1.39a4.8,4.8,0,0,1-.27,1.4l-1.79,5.39a2.35,2.35,0,0,0-.14.69.39.39,0,0,0,.44.45,1,1,0,0,0,.72-.42,5,5,0,0,0,.7-1.46l.24-.69h.34Z" transform="translate(-3.49 -0.3)" style="fill: #fff"/>
  </g>
</svg>
